<svg width="81" height="80" viewBox="0 0 81 80" fill="none" xmlns="http://www.w3.org/2000/svg">
<rect width="80" height="80" transform="translate(0.957031)" fill="white" fill-opacity="0.01"/>
<path fill-rule="evenodd" clip-rule="evenodd" d="M74.2907 40C74.2907 58.4095 59.3668 73.3334 40.9574 73.3334C22.5479 73.3334 7.62402 58.4095 7.62402 40C7.62402 21.5905 22.5479 6.66669 40.9574 6.66669C59.3668 6.66669 74.2907 21.5905 74.2907 40ZM37.7773 36.8201V26.5268C37.7773 26.1092 37.8596 25.6957 38.0194 25.3098C38.1792 24.924 38.4135 24.5735 38.7088 24.2782C39.004 23.9829 39.3546 23.7487 39.7404 23.5888C40.1262 23.429 40.5397 23.3468 40.9573 23.3468C41.375 23.3468 41.7885 23.429 42.1743 23.5888C42.5601 23.7487 42.9107 23.9829 43.2059 24.2782C43.5012 24.5735 43.7355 24.924 43.8953 25.3098C44.0551 25.6957 44.1374 26.1092 44.1374 26.5268V36.8201H54.4307C54.8483 36.8201 55.2618 36.9024 55.6476 37.0622C56.0334 37.222 56.384 37.4562 56.6793 37.7515C56.9746 38.0468 57.2088 38.3974 57.3686 38.7832C57.5284 39.169 57.6107 39.5825 57.6107 40.0001C57.6107 40.4177 57.5284 40.8312 57.3686 41.217C57.2088 41.6029 56.9746 41.9534 56.6793 42.2487C56.384 42.544 56.0334 42.7782 55.6476 42.938C55.2618 43.0979 54.8483 43.1801 54.4307 43.1801H44.1374V53.4734C44.1374 53.8911 44.0551 54.3046 43.8953 54.6904C43.7355 55.0762 43.5012 55.4268 43.2059 55.722C42.9107 56.0173 42.5601 56.2516 42.1743 56.4114C41.7885 56.5712 41.375 56.6535 40.9573 56.6535C40.5397 56.6535 40.1262 56.5712 39.7404 56.4114C39.3546 56.2516 39.004 56.0173 38.7088 55.722C38.4135 55.4268 38.1792 55.0762 38.0194 54.6904C37.8596 54.3046 37.7773 53.8911 37.7773 53.4734V43.1801H27.484C27.0664 43.1801 26.6529 43.0979 26.2671 42.938C25.8813 42.7782 25.5307 42.544 25.2354 42.2487C24.9401 41.9534 24.7059 41.6029 24.5461 41.217C24.3863 40.8312 24.304 40.4177 24.304 40.0001C24.304 39.5825 24.3863 39.169 24.5461 38.7832C24.7059 38.3974 24.9401 38.0468 25.2354 37.7515C25.5307 37.4562 25.8813 37.222 26.2671 37.0622C26.6529 36.9024 27.0664 36.8201 27.484 36.8201H37.7773Z" fill="#5243AA"/>
</svg>
