<svg width="24" height="34" viewBox="0 0 24 34" fill="none" xmlns="http://www.w3.org/2000/svg">
<rect width="24" height="24" transform="translate(0 5)" fill="white" fill-opacity="0.01"/>
<path fill-rule="evenodd" clip-rule="evenodd" d="M6.48499 22.669C6.67071 22.8548 6.89123 23.0022 7.13393 23.1028C7.37664 23.2033 7.63677 23.2551 7.89949 23.2551C8.1622 23.2551 8.42234 23.2033 8.66504 23.1028C8.90774 23.0022 9.12826 22.8548 9.31399 22.669L6.48499 19.839C6.29903 20.0248 6.15151 20.2453 6.05087 20.4881C5.95022 20.7309 5.89841 20.9912 5.89841 21.254C5.89841 21.5169 5.95022 21.7771 6.05087 22.0199C6.15151 22.2627 6.29903 22.4833 6.48499 22.669ZM11.382 10.478L10.657 11.203C9.87499 11.985 8.44699 13.016 7.45099 13.514L4.43399 15.023C3.93899 15.271 3.84999 15.797 4.24699 16.194L12.803 24.75C13.201 25.146 13.725 25.063 13.974 24.562L15.484 21.546C15.978 20.558 17.01 19.126 17.795 18.34L18.52 17.614C19.3432 16.7909 19.8566 15.7085 19.9733 14.5501C20.0899 13.3918 19.8026 12.2288 19.16 11.258C19.2675 11.1719 19.3563 11.0646 19.4208 10.9428C19.4854 10.8211 19.5243 10.6874 19.5352 10.55C19.5462 10.4127 19.5289 10.2745 19.4845 10.1441C19.44 10.0137 19.3694 9.89369 19.2768 9.79159C19.1843 9.68948 19.0718 9.60739 18.9464 9.55037C18.8209 9.49334 18.6851 9.4626 18.5474 9.46002C18.4096 9.45743 18.2727 9.48307 18.1452 9.53536C18.0177 9.58764 17.9023 9.66546 17.806 9.76403C17.783 9.78903 17.76 9.81303 17.74 9.83903C16.9135 9.29099 15.9437 8.9988 14.952 8.99903C14.2889 8.99823 13.6322 9.12839 13.0196 9.38202C12.407 9.63566 11.8504 10.0078 11.382 10.477V10.478Z" fill="#344563"/>
</svg>
