<svg width="350" height="228" viewBox="0 0 350 228" fill="none" xmlns="http://www.w3.org/2000/svg">
<g clip-path="url(#clip0_1647_1090)">
<rect width="349.679" height="228" fill="white" fill-opacity="0.01"/>
<path opacity="0.1" d="M147.587 221.98C159.282 221.98 168.764 220.434 168.764 218.527C168.764 216.62 159.282 215.074 147.587 215.074C135.891 215.074 126.41 216.62 126.41 218.527C126.41 220.434 135.891 221.98 147.587 221.98Z" fill="#344563"/>
<path opacity="0.1" d="M26.1102 223.331C39.689 223.331 50.6968 221.538 50.6968 219.325C50.6968 217.113 39.689 215.32 26.1102 215.32C12.5315 215.32 1.52368 217.113 1.52368 219.325C1.52368 221.538 12.5315 223.331 26.1102 223.331Z" fill="#344563"/>
<path opacity="0.1" d="M248.986 228C264.774 228 277.572 225.913 277.572 223.337C277.572 220.762 264.774 218.674 248.986 218.674C233.199 218.674 220.4 220.762 220.4 223.337C220.4 225.913 233.199 228 248.986 228Z" fill="#344563"/>
<path opacity="0.05" d="M347.302 193.123H132.21L31.7131 209.268H303.953L347.652 197.86C348.955 197.663 349.845 196.447 349.649 195.144C349.477 193.983 348.475 193.123 347.302 193.123Z" fill="#344563"/>
<path d="M137.855 196.121H325.836C327.298 196.201 328.546 195.083 328.625 193.62C328.644 193.283 328.601 192.951 328.49 192.631L272.412 17.2633C271.902 15.8134 270.532 14.8489 268.996 14.8366H81.0214C79.5592 14.7383 78.2998 15.8503 78.2076 17.3063C78.183 17.6504 78.2322 17.9944 78.3428 18.3262L134.446 193.688C134.95 195.144 136.32 196.115 137.855 196.121Z" fill="url(#paint0_linear_1647_1090)"/>
<path d="M112.802 209.269H300.777C302.528 209.281 303.953 207.868 303.959 206.117C303.959 205.92 303.941 205.724 303.91 205.533L269.58 17.442C269.303 15.9368 267.995 14.8371 266.459 14.8433H78.4779C76.727 14.8433 75.3079 16.2563 75.3079 18.0072C75.3079 18.2038 75.3263 18.3943 75.3632 18.5847L109.681 206.67C109.951 208.181 111.272 209.275 112.802 209.269Z" fill="#C1C7D0"/>
<path d="M273.794 209.269H85.721C84.0438 209.275 82.6554 207.966 82.5509 206.289L71.1178 18.2099C71.0072 16.4652 72.3342 14.96 74.079 14.8494C74.1465 14.8433 74.2141 14.8433 74.2817 14.8433H262.355C264.032 14.8433 265.42 16.1457 265.525 17.8229L276.964 205.908C277.075 207.653 275.748 209.158 274.003 209.269C273.929 209.269 273.862 209.269 273.794 209.269Z" fill="url(#paint1_linear_1647_1090)"/>
<path d="M246.769 209.268H58.6897C56.9387 209.274 55.5196 207.855 55.5134 206.104C55.5134 206.037 55.5134 205.969 55.5196 205.901L66.9712 17.8161C67.0695 16.1389 68.4641 14.8364 70.1413 14.8364H258.208C259.959 14.8303 261.378 16.2495 261.384 18.0004C261.384 18.068 261.384 18.1355 261.378 18.2031L249.933 206.282C249.834 207.959 248.446 209.268 246.769 209.268Z" fill="url(#paint2_linear_1647_1090)"/>
<path d="M219.688 209.269H31.713C29.9621 209.269 28.543 207.856 28.543 206.105C28.543 205.914 28.5614 205.724 28.5921 205.533L62.8794 17.442C63.1558 15.9368 64.4644 14.8371 66.0003 14.8433H254.012C255.763 14.8433 257.182 16.2563 257.182 18.0072C257.182 18.2038 257.163 18.3943 257.127 18.5847L222.809 206.67C222.532 208.175 221.217 209.269 219.688 209.269Z" fill="url(#paint3_linear_1647_1090)"/>
<path d="M257.127 18.584C257.416 17.0788 256.586 15.5798 255.155 15.0269L72.7831 20.6421C71.2472 20.6482 69.8833 21.6189 69.3672 23.0688L51.9502 77.5008L29.2498 201.92H203.93C205.466 201.914 206.83 200.943 207.346 199.494L254.755 31.6821L257.127 18.584Z" fill="url(#paint4_linear_1647_1090)"/>
<path d="M192.324 196.121H4.34364C2.88147 196.219 1.62204 195.107 1.52988 193.651C1.50531 193.307 1.55446 192.963 1.66504 192.631L57.7619 17.2633C58.2719 15.8134 59.6419 14.8489 61.1778 14.8366H249.165C250.627 14.7383 251.886 15.8503 251.978 17.3063C252.003 17.6504 251.954 17.9944 251.843 18.3262L195.74 193.688C195.236 195.144 193.866 196.115 192.324 196.121Z" fill="url(#paint5_linear_1647_1090)"/>
<path d="M249.165 14.8426H61.1838C59.6479 14.8487 58.284 15.8194 57.7679 17.2693L49.4741 43.2197H243.893L251.849 18.3506C252.322 16.9683 251.585 15.457 250.203 14.9839C249.871 14.8672 249.515 14.818 249.165 14.8426Z" fill="#FF7143"/>
<path d="M210.362 33.4825C213.076 33.4825 215.277 31.2821 215.277 28.5677C215.277 25.8533 213.076 23.6528 210.362 23.6528C207.647 23.6528 205.447 25.8533 205.447 28.5677C205.447 31.2821 207.647 33.4825 210.362 33.4825Z" fill="#0065FF"/>
<path d="M225.192 14.8367H222.987C222.987 7.87605 217.322 2.20554 210.356 2.20554C203.389 2.20554 197.724 7.86991 197.724 14.8367H195.519C195.525 6.65348 202.178 0 210.362 0C218.545 0 225.192 6.65348 225.192 14.8367Z" fill="#EBECF0"/>
<path d="M210.368 29.6673C202.191 29.6673 195.531 23.0138 195.531 14.8306H197.737C197.737 21.7912 203.401 27.4617 210.368 27.4617V29.6673Z" fill="url(#paint6_linear_1647_1090)"/>
<path d="M147.931 33.4825C150.645 33.4825 152.846 31.2821 152.846 28.5677C152.846 25.8533 150.645 23.6528 147.931 23.6528C145.217 23.6528 143.016 25.8533 143.016 28.5677C143.016 31.2821 145.217 33.4825 147.931 33.4825Z" fill="#0065FF"/>
<path d="M162.768 14.8367H160.562C160.562 7.87605 154.898 2.20554 147.931 2.20554C140.97 2.20554 135.3 7.86991 135.3 14.8367H133.094C133.1 6.65348 139.754 0 147.937 0C156.114 0 162.768 6.65348 162.768 14.8367Z" fill="#EBECF0"/>
<path d="M147.931 29.6673C139.754 29.6673 133.094 23.0138 133.094 14.8306H135.3C135.3 21.7912 140.964 27.4617 147.931 27.4617V29.6673Z" fill="url(#paint7_linear_1647_1090)"/>
<path d="M85.5062 33.4825C88.2206 33.4825 90.421 31.2821 90.421 28.5677C90.421 25.8533 88.2206 23.6528 85.5062 23.6528C82.7918 23.6528 80.5913 25.8533 80.5913 28.5677C80.5913 31.2821 82.7918 33.4825 85.5062 33.4825Z" fill="#0065FF"/>
<path d="M100.318 14.8367H98.1129C98.1129 7.87605 92.4485 2.20554 85.4817 2.20554C78.5149 2.20554 72.8505 7.86991 72.8505 14.8367H70.6511C70.6511 6.65348 77.3046 0 85.4817 0C93.6588 0 100.318 6.65348 100.318 14.8367Z" fill="#EBECF0"/>
<path d="M85.4817 29.6673C81.5253 29.6673 77.8084 28.1314 75.007 25.3361C72.1993 22.5407 70.6512 18.8177 70.645 14.8551L72.8506 14.8306C72.8567 18.2218 74.1714 21.3919 76.5613 23.7756C78.945 26.1532 82.1089 27.4617 85.4756 27.4617C85.4817 27.4617 85.4879 27.4617 85.494 27.4617L85.5002 29.6673C85.5002 29.6673 85.494 29.6673 85.4817 29.6673Z" fill="url(#paint8_linear_1647_1090)"/>
<path d="M210.54 83.1901L211.118 81.3962H179.552L187.52 56.6069H185.726L177.758 81.3962H154.615L162.571 56.6069H160.777L152.809 81.3962H129.691L137.659 56.6069H135.865L127.891 81.3962H104.748L112.722 56.6069H110.928L102.96 81.3962H79.8112L87.7794 56.6069H85.9854L78.0172 81.3962H53.2279L52.632 83.1901H77.4213L69.9876 106.327H45.2106L44.6331 108.121H69.4224L61.9887 131.264H37.1932L36.6157 133.057H61.405L53.9713 156.2H29.1759L28.5984 157.994H53.3877L45.4195 182.783H47.2134L55.1816 157.994H78.3183L70.3501 182.783H72.144L80.1122 157.994H103.249L95.2806 182.783H97.0746L105.043 157.994H128.179L120.236 182.783H122.03L129.998 157.994H153.135L145.166 182.783H146.96L154.929 157.994H186.47L187.047 156.2H155.5L162.934 133.064H194.493L195.071 131.27H163.511L170.945 108.133H202.504L203.082 106.339H171.522L178.944 83.1901H210.54ZM152.244 83.1901L144.816 106.327H121.661L129.113 83.1901H152.244ZM121.09 108.127H144.226L136.793 131.264H113.65L121.09 108.127ZM111.85 131.264H88.7132L96.1469 108.127H119.284L111.85 131.264ZM127.307 83.1901L119.873 106.327H96.7305L104.164 83.1901H127.307ZM79.2398 83.1901H102.376L94.9427 106.327H71.7999L79.2398 83.1901ZM71.2225 108.127H94.3591L86.9193 131.264H63.7826L71.2225 108.127ZM55.7591 156.2L63.1928 133.064H86.3295L78.8958 156.2H55.7591ZM80.6958 156.2L88.1357 133.057H111.272L103.845 156.2H80.6958ZM105.633 156.2L113.066 133.064H136.203L128.769 156.2H105.633ZM153.706 156.2H130.563L137.985 133.057H161.121L153.706 156.2ZM161.723 131.264H138.581L146.014 108.127H169.151L161.723 131.264ZM169.741 106.327H146.598L154.032 83.1901H177.168L169.741 106.327Z" fill="url(#paint9_linear_1647_1090)"/>
<path opacity="0.7" d="M96.1836 115.763L95.3113 117.281C95.0532 117.729 95.2068 118.301 95.6553 118.559C95.6614 118.559 95.6614 118.565 95.6676 118.565L103.273 122.767C98.9483 123.535 94.8382 125.243 91.2504 127.78C77.7837 136.922 76.5611 168.027 76.0696 171.479C75.9959 171.989 76.3461 172.456 76.856 172.53C76.8744 172.53 76.8929 172.536 76.9113 172.536L79.2274 172.745C79.7189 172.788 80.1612 172.444 80.2288 171.952C80.6527 169.046 82.76 139.103 93.8184 131.036C97.4554 128.388 101.774 126.852 106.265 126.607L99.0711 135.761C98.7517 136.166 98.8254 136.756 99.237 137.075L99.2431 137.081L100.662 138.144C101.068 138.451 101.645 138.372 101.959 137.972L111.782 125.464C112.335 124.757 112.212 123.738 111.506 123.185C111.438 123.129 111.364 123.086 111.291 123.043L97.4431 115.401C96.9946 115.161 96.4355 115.321 96.1836 115.763Z" fill="url(#paint10_linear_1647_1090)"/>
<path opacity="0.7" d="M215.879 95.2805L216.088 93.2347C216.149 92.6388 215.719 92.1043 215.123 92.0429C215.117 92.0429 215.105 92.0429 215.099 92.0429L204.986 91.1766C209.342 88.4304 212.936 84.6214 215.424 80.112C220.634 70.5895 218.938 61.3005 217.833 57.4177C217.667 56.8402 217.071 56.5023 216.493 56.6682C216.475 56.6743 216.45 56.6805 216.432 56.6866L213.864 57.5652C213.323 57.7556 213.028 58.3331 213.182 58.886C214.982 65.2446 214.251 72.0578 211.136 77.8881C208.568 82.4835 204.679 86.1942 199.967 88.5349L203.297 75.3078C203.444 74.7241 203.094 74.1344 202.511 73.9869C202.504 73.9869 202.492 73.9808 202.486 73.9808L200.44 73.5139C199.863 73.3787 199.285 73.735 199.144 74.3064L194.665 92.3316C194.413 93.3514 195.034 94.3774 196.048 94.6293C196.14 94.6539 196.238 94.6662 196.336 94.6784L214.706 96.2819C215.301 96.3311 215.83 95.8887 215.879 95.2928C215.879 95.2867 215.879 95.2805 215.879 95.2805Z" fill="url(#paint11_linear_1647_1090)"/>
<path d="M152.06 146.015C143.262 146.051 134.944 142.015 129.525 135.091C124.874 129.187 123.172 121.477 124.905 114.16C126.902 105.596 133.254 97.6892 142.347 92.4672C151.181 87.3926 160.839 85.9182 167.547 88.6213C171.578 90.2494 174.772 93.444 177.039 98.1254L173.23 100.325C171.344 96.4298 168.758 93.7942 165.551 92.5041C160.04 90.2862 151.599 91.6563 144.048 95.9936C136.154 100.528 130.655 107.292 128.972 114.559C127.528 120.777 129.003 127.314 132.971 132.314C137.69 138.36 144.933 141.886 152.6 141.874C164.814 141.874 180.215 131.276 183.785 114.203C186.894 99.3357 178.188 85.525 163.523 82.1092L164.986 78.0605C181.555 81.9371 191.391 97.6032 187.858 114.498C184.688 129.642 170.103 145.996 152.029 146.015H152.06Z" fill="#FF5630"/>
<path d="M192.41 162.104L186.095 160.009C185.794 159.911 185.468 160.071 185.364 160.372L182.876 167.67C182.771 167.971 182.931 168.303 183.238 168.408L184.338 168.782C184.639 168.887 184.971 168.727 185.075 168.42L186.334 164.722L192.755 181.377C192.871 181.672 193.203 181.825 193.498 181.708L194.585 181.297C194.886 181.18 195.034 180.848 194.923 180.547L188.227 163.161L191.679 164.31C191.98 164.408 192.312 164.242 192.41 163.941L192.779 162.842C192.871 162.541 192.712 162.209 192.41 162.104Z" fill="#FF5630"/>
<path d="M176.075 150.855L170.171 147.796C169.888 147.648 169.538 147.759 169.39 148.042L165.79 154.867C165.643 155.15 165.747 155.5 166.036 155.653L167.062 156.194C167.344 156.342 167.695 156.237 167.848 155.948L169.673 152.483L171.719 162.202C171.786 162.516 172.087 162.719 172.401 162.651L173.537 162.411C173.851 162.344 174.053 162.043 173.986 161.729L171.799 151.242L175.03 152.913C175.313 153.061 175.663 152.956 175.816 152.668L176.351 151.636C176.492 151.347 176.376 151.003 176.093 150.855C176.087 150.855 176.081 150.855 176.075 150.855Z" fill="#FFC400"/>
<path d="M191.501 136.572L184.872 137.174C184.553 137.205 184.319 137.481 184.344 137.8L184.983 145.486C185.007 145.806 185.29 146.045 185.609 146.021C185.609 146.021 185.609 146.021 185.616 146.021L186.771 145.922C187.09 145.898 187.33 145.615 187.305 145.296C187.305 145.296 187.305 145.296 187.305 145.289L186.979 141.388L193.915 148.49C194.143 148.718 194.511 148.718 194.733 148.49L195.568 147.679C195.795 147.452 195.795 147.083 195.568 146.862L188.055 139.195L191.679 138.869C191.999 138.839 192.232 138.562 192.208 138.243L192.103 137.088C192.066 136.781 191.808 136.559 191.501 136.572Z" fill="#FFC400"/>
<path d="M109.767 111.021L114.67 106.523C114.909 106.308 114.928 105.94 114.713 105.706L109.54 99.9867C109.325 99.7471 108.956 99.7287 108.723 99.9437L107.863 100.724C107.623 100.939 107.605 101.308 107.82 101.541L110.443 104.441L100.625 102.997C100.312 102.936 100.005 103.145 99.9496 103.458C99.9496 103.47 99.9435 103.476 99.9435 103.489L99.7715 104.637C99.71 104.951 99.9189 105.258 100.232 105.313C100.245 105.313 100.251 105.319 100.263 105.319L110.867 106.868L108.182 109.325C107.949 109.54 107.93 109.909 108.145 110.142L108.932 110.996C109.147 111.236 109.515 111.254 109.749 111.033C109.755 111.033 109.761 111.027 109.767 111.021Z" fill="#FF5630"/>
<path d="M116.906 99.765L123.51 98.9664C123.823 98.9295 124.051 98.6408 124.014 98.3274L123.148 90.6664C123.111 90.3469 122.822 90.1196 122.509 90.1565L121.354 90.2855C121.034 90.3224 120.807 90.6111 120.844 90.9244L121.28 94.8072L105.368 79.1472C105.141 78.9199 104.778 78.9138 104.545 79.1411L104.539 79.1472L103.734 79.9827C103.507 80.2101 103.507 80.5787 103.734 80.7998L120.229 97.025L116.617 97.4612C116.298 97.498 116.07 97.7868 116.113 98.1063L116.248 99.2613C116.298 99.5807 116.586 99.808 116.906 99.765Z" fill="#FFE380"/>
<path d="M125.697 151.857C125.292 152.066 124.837 152.17 124.377 152.158L121.575 152.084L119.683 154.517C119.388 154.898 119.019 155.205 118.589 155.426C117.864 155.813 117.004 155.832 116.261 155.481C115.53 155.125 115.02 154.431 114.897 153.632L114.387 150.757L111.813 149.836C110.83 149.461 110.179 148.521 110.179 147.464C110.148 146.334 110.689 145.265 111.622 144.626L114.111 142.918L114.412 139.914C114.522 138.789 115.198 137.794 116.206 137.278C117.127 136.768 118.264 136.891 119.062 137.579L121.108 139.404L123.842 138.47C124.819 138.107 125.912 138.402 126.576 139.207C127.239 140.08 127.362 141.241 126.895 142.23L125.697 145.068L127.104 147.495C127.516 148.238 127.59 149.117 127.307 149.922C127.043 150.745 126.465 151.445 125.697 151.857Z" fill="url(#paint12_linear_1647_1090)"/>
<path d="M126.023 150.056C125.617 150.265 125.163 150.37 124.702 150.358L121.9 150.284L120.008 152.717C119.713 153.098 119.345 153.405 118.915 153.626C118.19 154.013 117.33 154.031 116.586 153.681C115.855 153.325 115.345 152.631 115.222 151.832L114.713 148.957L112.138 148.035C111.155 147.66 110.504 146.721 110.504 145.664C110.473 144.533 111.014 143.464 111.948 142.825L114.436 141.118L114.737 138.113C114.848 136.989 115.523 135.994 116.531 135.478C117.453 134.968 118.589 135.091 119.388 135.779L121.434 137.603L124.167 136.67C125.144 136.307 126.238 136.602 126.901 137.407C127.565 138.279 127.688 139.44 127.221 140.43L125.998 143.262L127.405 145.688C127.817 146.432 127.89 147.31 127.608 148.115C127.356 148.932 126.785 149.633 126.023 150.056Z" fill="white"/>
<path d="M118.27 137.174L120.948 139.557L124.561 138.335C125.107 138.157 125.691 138.452 125.869 138.992C125.961 139.275 125.931 139.582 125.777 139.84L124.18 143.551L126.023 146.727C126.342 147.36 126.09 148.134 125.458 148.453C125.292 148.539 125.107 148.582 124.923 148.595L121.261 148.496L118.786 151.679C118.485 152.17 117.846 152.318 117.36 152.023C117.108 151.869 116.936 151.617 116.881 151.328L116.199 147.569L112.826 146.358C112.243 146.063 112.003 145.351 112.298 144.761C112.402 144.558 112.556 144.386 112.753 144.276L116.003 142.046L116.396 138.12C116.408 137.469 116.949 136.946 117.6 136.965C117.839 136.959 118.073 137.039 118.27 137.174Z" fill="#FFAB00"/>
<path d="M193.854 120.611C193.443 120.408 193.092 120.113 192.822 119.744L191.194 117.453L188.116 117.404C187.643 117.398 187.176 117.281 186.752 117.078C186.015 116.728 185.481 116.058 185.309 115.253C185.167 114.455 185.425 113.644 185.99 113.066L187.987 110.928L187.145 108.317C186.851 107.304 187.213 106.216 188.055 105.584C188.939 104.877 190.125 104.668 191.194 105.031L194.051 105.989L196.631 104.422C197.596 103.839 198.794 103.783 199.813 104.275C200.772 104.705 201.362 105.688 201.288 106.732L201.061 109.466L203.463 111.113C204.341 111.672 204.765 112.728 204.519 113.742C204.212 114.787 203.358 115.573 202.295 115.788L199.297 116.519L198.204 119.099C197.86 119.873 197.202 120.463 196.392 120.715C195.574 121.022 194.659 120.985 193.854 120.611Z" fill="url(#paint13_linear_1647_1090)"/>
<path d="M195.494 119.793C195.083 119.591 194.733 119.296 194.462 118.927L192.834 116.648L189.756 116.599C189.283 116.593 188.816 116.476 188.392 116.273C187.655 115.923 187.121 115.253 186.949 114.449C186.807 113.65 187.065 112.839 187.631 112.261L189.627 110.124L188.816 107.506C188.521 106.493 188.884 105.405 189.726 104.772C190.61 104.066 191.796 103.857 192.865 104.22L195.722 105.178L198.302 103.611C199.267 103.028 200.465 102.972 201.484 103.464C202.443 103.894 203.033 104.877 202.959 105.921L202.731 108.655L205.134 110.302C206.012 110.861 206.436 111.917 206.19 112.931C205.883 113.976 205.029 114.762 203.966 114.977L200.968 115.708L199.875 118.288C199.531 119.062 198.873 119.652 198.062 119.904C197.227 120.217 196.305 120.174 195.494 119.793Z" fill="white"/>
<path d="M201.116 105.841L200.821 109.41L203.966 111.561C204.439 111.886 204.556 112.531 204.231 113.004C204.065 113.25 203.794 113.41 203.499 113.447L199.58 114.405L198.155 117.821C197.841 118.46 197.073 118.718 196.434 118.405C196.268 118.325 196.121 118.202 196.004 118.061L193.872 115.075L189.842 115.013C189.271 115.069 188.761 114.651 188.706 114.086C188.675 113.791 188.773 113.502 188.976 113.281L191.587 110.479L190.524 107.064C190.26 106.216 191.206 105.436 192.14 105.755L195.875 107.002L199.248 104.956C199.783 104.575 200.52 104.704 200.895 105.233C201.024 105.411 201.097 105.62 201.116 105.841Z" fill="#2684FF"/>
<path d="M69.1336 174.901L69.748 175.816L74.2573 172.788L73.4218 171.547C72.0026 169.433 71.3699 166.896 71.634 164.365V164.052C71.8982 161.52 71.2654 158.977 69.8463 156.87L15.2177 75.6088C12.6558 71.7998 7.48907 70.7861 3.68006 73.3479C-0.128953 75.9098 -1.14264 81.0765 1.41923 84.8856L55.8512 165.815C57.4055 168.125 59.7831 169.747 62.4924 170.355C65.2079 170.969 67.5793 172.591 69.1336 174.901Z" fill="#403294"/>
<path d="M35.3931 135.373C35.4791 130.895 35.946 124.923 36.3024 120.352C36.671 115.572 36.9843 111.555 37.1256 108.151L32.8804 101.835C32.9234 107.039 32.3275 114.7 31.9097 120.014C31.6394 123.516 31.4121 126.569 31.2278 129.223L35.3931 135.373Z" fill="#2684FF"/>
<path d="M17.1283 78.417C16.2068 102.573 18.3386 108.14 22.037 108.865C25.3484 109.503 27.6645 105.572 30.1097 101.412C30.4414 100.847 30.853 100.147 31.2769 99.4648L28.6045 95.4961C27.8488 96.5774 27.0932 97.8429 26.3129 99.1822C25.4283 100.687 23.8862 103.311 22.8971 104.251C22.2766 103.034 21.1278 98.8505 21.3551 84.7203L17.1283 78.417Z" fill="#2684FF"/>
<path d="M44.7745 119.498C40.9778 129.18 38.4589 134.519 36.8247 137.493L39.5586 141.523C41.5245 138.451 44.111 133.081 47.7541 123.94L44.7745 119.498Z" fill="#2684FF"/>
<path d="M74.1772 178.907L75.5411 176.923C75.7315 176.646 75.7315 176.284 75.5411 176.007L73.6489 173.193L70.4358 175.356L72.8195 178.901C73.0652 179.275 73.569 179.386 73.9438 179.14C74.0359 179.079 74.1158 178.999 74.1772 178.907Z" fill="#0065FF"/>
<path d="M200.446 144.079L199.604 144.761L202.928 148.914L204.071 147.998C206.012 146.444 208.445 145.615 210.933 145.664H211.24C213.728 145.713 216.161 144.884 218.103 143.329L292.888 83.4049C296.396 80.5973 296.961 75.4735 294.154 71.9656C294.154 71.9656 294.154 71.9656 294.154 71.9594C291.346 68.4514 286.222 67.8862 282.714 70.6938C282.714 70.6938 282.714 70.6938 282.708 70.6938L208.224 130.422C206.104 132.117 204.71 134.562 204.329 137.247C203.954 139.938 202.565 142.383 200.446 144.079Z" fill="#FFAB00"/>
<path d="M236.251 107.942C240.625 107.66 246.492 107.623 250.996 107.592C255.671 107.592 259.633 107.518 262.963 107.402L268.781 102.739C263.707 103.206 256.181 103.249 250.965 103.286C247.549 103.286 244.526 103.335 241.921 103.396L236.251 107.942Z" fill="#FFC400"/>
<path d="M290.327 85.4819C266.68 86.5632 261.421 89.1005 261.028 92.7682C260.672 96.055 264.696 97.9841 268.953 100.036C269.531 100.319 270.243 100.657 270.95 101.013L274.605 98.0824C273.487 97.4004 272.191 96.7984 270.821 96.141C269.279 95.4038 266.594 94.0952 265.599 93.2351C266.741 92.5532 270.729 91.0664 284.527 90.1265L290.327 85.4819Z" fill="#FFC400"/>
<path d="M252.482 115.806C242.726 112.888 237.295 110.879 234.279 109.521L230.568 112.489C233.732 114.154 239.181 116.236 248.397 119.062L252.482 115.806Z" fill="#FFC400"/>
<path d="M196.963 149.35L199.008 150.536C199.291 150.702 199.647 150.671 199.905 150.468L202.498 148.422L200.12 145.443L196.858 148.06C196.52 148.343 196.477 148.84 196.754 149.178C196.815 149.246 196.883 149.307 196.963 149.35Z" fill="#FF991F"/>
<path d="M183.183 75.996C182.961 75.6458 182.691 75.3325 182.372 75.0683C183.207 74.712 183.84 73.9932 184.092 73.1208L187.151 62.5662C187.735 60.5757 186.586 58.493 184.596 57.9093C182.605 57.3257 180.522 58.4746 179.939 60.4651C179.89 60.6309 179.853 60.7968 179.828 60.9627L178.176 71.8245C178.04 72.7215 178.317 73.6369 178.925 74.3127C177.531 74.6997 176.468 75.8301 176.161 77.2431C175.7 79.3197 177.002 81.3716 179.079 81.8385L179.435 81.9C181.548 82.1764 183.49 80.6897 183.772 78.5702C183.889 77.6732 183.693 76.7639 183.207 75.996H183.183Z" fill="url(#paint14_linear_1647_1090)"/>
<path d="M193.221 76.3152C193.086 75.9221 192.883 75.5596 192.631 75.2278C193.528 75.062 194.302 74.509 194.739 73.7104L200.059 64.0957C201.097 62.3018 200.477 60.0041 198.683 58.9658C196.889 57.9276 194.591 58.548 193.553 60.342C193.449 60.5201 193.363 60.7044 193.295 60.8949L189.259 71.1362C188.927 71.984 188.988 72.9363 189.437 73.7288C187.993 73.7964 186.697 74.6565 186.082 75.9712C185.173 77.888 185.984 80.1857 187.901 81.1011L188.233 81.2362C190.235 81.9796 192.459 80.9598 193.203 78.9631C193.516 78.1153 193.528 77.1815 193.227 76.3275L193.221 76.3152Z" fill="url(#paint15_linear_1647_1090)"/>
<path d="M28.2053 120.371C28.2668 120.807 28.2053 121.243 28.0333 121.649C27.7507 122.33 26.866 124.382 26.1841 124.26C25.8585 124.186 25.7111 123.621 25.6865 123.338C25.6312 122.779 26.3254 122.441 26.3684 121.851C26.3623 121.728 26.3807 121.612 26.4237 121.495C26.4851 121.139 26.5097 120.948 26.5957 120.93C26.6756 120.911 26.9091 121.286 27.1548 121.28C27.5787 121.28 27.7814 119.916 28.0149 119.959C28.1316 119.928 28.1808 120.254 28.2053 120.371Z" fill="#8C715D"/>
<path d="M24.2365 124.53C24.7894 125.046 26.184 124.776 26.8598 123.952C27.2469 123.43 27.4066 122.767 27.3021 122.122C27.2161 121.44 26.9213 121.378 26.6939 120.678C26.2147 119.191 26.9335 117.944 26.5772 117.754C26.4912 117.717 26.3315 117.754 26.012 118.036C25.9506 117.956 25.8584 117.913 25.7601 117.907C25.5328 117.907 25.4038 118.319 25.3424 118.503C24.9246 119.615 24.5744 120.758 24.3041 121.919C24.0399 123.492 23.9539 124.278 24.2365 124.53Z" fill="#8C715D"/>
<path d="M24.3469 119.799C24.224 120.285 24.1872 120.788 24.2486 121.286C24.2486 123.105 24.009 124.266 24.1503 124.266C24.2916 124.266 24.3592 123.909 24.4329 123.707C24.992 122.066 25.8582 118.614 25.3545 118.448C25.0964 118.356 24.5681 119.099 24.3469 119.799Z" fill="#8C715D"/>
<path d="M18.5844 218.87L11.1445 217.285L12.1521 212.573L14.4375 213.728C14.4375 214.558 14.7508 215.356 15.3222 215.958C16.2621 216.868 17.5523 216.597 18.2281 217.611C18.4738 217.986 18.5967 218.428 18.5844 218.87Z" fill="#162B4C"/>
<path d="M10.9833 216.715L10.8752 217.22L18.5765 218.869L18.6845 218.364L10.9833 216.715Z" fill="#8893A5"/>
<path d="M50.5861 218.263H42.1755V212.912L44.9094 213.028C45.192 214.792 45.8678 215.516 46.3962 215.842C47.5757 216.585 48.9642 215.983 49.9471 216.96C50.285 217.317 50.5124 217.771 50.5861 218.263Z" fill="#162B4C"/>
<path d="M50.7641 217.691H42.0095V218.262H50.7641V217.691Z" fill="#8893A5"/>
<path d="M34.2564 153.337C33.5007 152.754 32.9294 151.955 32.6222 151.052C31.7621 148.49 33.1444 145.713 35.7063 144.853C37.1561 144.368 38.7535 144.583 40.019 145.449C40.8607 145.074 41.8498 145.449 42.2307 146.297C42.5195 146.942 42.372 147.691 41.8621 148.183C41.8621 148.343 41.8375 148.508 41.7884 148.662C41.3583 150.376 40.3016 151.875 38.8333 152.852L34.2564 153.337Z" fill="#27375C"/>
<path d="M37.2975 157.926C35.6695 158.498 33.8571 158.184 32.5178 157.091C33.5807 155.794 34.2134 154.203 34.3302 152.532L38.3173 153.214L37.2975 157.926Z" fill="#8C715D"/>
<path d="M41.8684 148.177C41.85 148.766 41.8746 149.356 41.9422 149.94C41.9913 150.333 42.0466 150.622 42.0589 150.689C42.1879 151.371 42.3906 152.035 42.661 152.674L41.678 152.821L40.7564 155.887C39.4356 156.169 38.0717 156.182 36.7508 155.936C35.6327 155.715 34.49 155.5 34.017 154.633C33.8757 154.326 33.7712 154.001 33.7098 153.669C33.6545 153.466 33.5931 153.27 33.5193 153.073C33.4395 152.827 33.3104 152.483 33.1384 152.072C33.5193 152.299 33.9494 152.428 34.3856 152.452C34.8095 152.538 35.2518 152.446 35.6081 152.207C36.0996 151.74 35.7494 150.923 36.1979 150.702C36.3945 150.622 36.628 150.646 36.8 150.775C37.2853 151.144 37.058 152.36 37.058 152.36H37.9366C37.9918 151.813 38.1823 151.285 38.4895 150.824C38.9687 150.142 39.3987 150.142 39.7489 149.461C40.0991 148.779 39.8656 148.379 40.1974 148.097C40.5291 147.814 40.8547 147.783 41.8684 148.177Z" fill="#8C715D"/>
<path d="M53.0005 140.294C52.9698 140.706 53.0558 141.112 53.2462 141.474C53.5595 142.076 54.5179 143.968 55.1507 143.784C55.4518 143.698 55.5439 143.157 55.5562 142.887C55.5562 142.359 54.8743 142.094 54.8128 141.523C54.8005 141.413 54.7821 141.302 54.7453 141.198C54.6654 140.866 54.6285 140.7 54.5548 140.688C54.4811 140.675 54.2906 141.044 54.0633 141.05C53.6701 141.05 53.3814 139.834 53.1664 139.883C53.0681 139.889 53.0066 140.19 53.0005 140.294Z" fill="#8C715D"/>
<path d="M24.9489 169.839C24.2055 171.203 23.542 172.634 22.9031 174.145C20.4518 179.773 18.8053 185.72 18.0128 191.808C17.1343 193.854 16.2803 195.998 15.4632 198.29C13.7061 203.297 12.3607 208.445 11.4453 213.673L15.4386 214.589L23.0935 193.823C23.499 192.976 24.0826 191.704 24.7953 190.174C29.9497 179.011 30.4474 177.021 29.8576 174.999C29.5074 173.838 28.4999 171.756 24.9489 169.839Z" fill="#403294"/>
<path d="M57.3196 143.956C56.8097 144.515 55.4029 144.337 54.6656 143.569C54.2356 143.071 54.0328 142.42 54.0943 141.769C54.1434 141.087 54.4199 141.026 54.598 140.282C54.9728 138.796 54.168 137.548 54.512 137.358C54.5919 137.309 54.7578 137.358 55.0895 137.604C55.1448 137.524 55.2308 137.475 55.3291 137.462C55.5564 137.462 55.7162 137.849 55.796 138.028C56.2937 139.109 56.7176 140.221 57.0678 141.351C57.4118 142.906 57.5777 143.686 57.3196 143.956Z" fill="#8C715D"/>
<path d="M35.0798 172.143C37.8014 178.686 40.099 185.4 41.9605 192.238C43.8958 199.328 45.3641 206.541 46.3532 213.821H41.7517C41.0882 210.896 40.3264 207.868 39.4663 204.74C38.2867 200.465 37.0088 196.447 35.6941 192.662C29.2249 186.433 24.8999 181.149 23.6404 178.52C23.1551 177.518 22.2766 175.749 22.8971 174.053C22.9831 173.783 23.2288 173.31 23.708 172.284C24.1872 171.258 24.6173 170.435 24.8937 169.882C28.1621 171.135 31.6025 171.872 35.0982 172.075L35.0798 172.143Z" fill="#403294"/>
<path d="M40.7257 157.416C37.3529 157.115 34.1398 155.819 31.4981 153.693C29.4339 151.949 27.7935 149.755 26.7184 147.273C25.6371 144.951 25.0166 142.445 24.8753 139.895C25.4836 136.706 26.018 133.346 26.4665 129.807C26.6816 128.13 26.8597 126.49 27.0133 124.88L23.5975 123.019C22.8541 125.666 22.2336 128.48 21.5947 131.448C20.9127 134.765 20.3721 137.947 19.9543 140.952C20.3783 145.191 21.607 149.307 23.5852 153.079C24.7463 155.278 26.1532 157.343 27.7874 159.223C27.3205 160.814 26.7676 162.509 26.0856 164.266C25.2562 166.386 24.3163 168.462 23.2657 170.478C26.614 173.654 31.3199 174.969 35.8293 173.973C36.4007 172.566 36.9536 171.049 37.4819 169.421C38.1577 167.363 38.7168 165.268 39.153 163.148C40.9592 163.345 42.7838 163.296 44.5716 163.001C46.4823 162.681 49.6831 162.147 52.3617 159.757C54.5918 157.797 55.3413 155.536 56.2812 152.827C57.3441 149.755 57.8479 146.518 57.768 143.268C57.3379 143.071 56.871 142.979 56.4041 142.997C55.7775 143.016 55.1693 143.225 54.6655 143.599C53.873 148.011 52.2142 152.225 49.7814 155.991C47.0106 157.484 43.8221 158.006 40.7196 157.478L40.7257 157.416Z" fill="#FF7452"/>
<path opacity="0.2" d="M187.446 93.542H143.704V139.6H187.446V93.542Z" fill="url(#paint16_linear_1647_1090)"/>
<path d="M146.61 136.916L146.567 135.982L146.186 134.839V132.474C146.235 132.468 146.284 132.468 146.327 132.474C146.776 132.646 146.764 133.574 146.764 133.623L146.825 131.092C146.948 131.024 147.126 130.956 147.249 131.03C147.372 131.104 147.378 131.497 147.353 131.958C147.329 132.443 147.329 132.928 147.353 133.414L147.679 130.963C147.783 130.95 147.888 130.975 147.974 131.036C148.084 131.153 148.14 131.313 148.115 131.472C148.115 132.099 147.937 133.322 147.925 133.451L148.662 131.116C148.791 131.147 148.901 131.214 148.981 131.319C149.129 131.528 149.018 131.792 148.797 132.627C148.65 133.193 148.533 133.524 148.711 133.782C148.742 133.825 148.772 133.862 148.815 133.893C148.877 133.531 149.104 133.223 149.436 133.07C149.59 133.015 149.762 133.002 149.921 133.033C149.86 133.15 149.805 133.266 149.743 133.395C149.559 133.782 149.411 134.188 149.295 134.606L148.865 135.767V136.713L146.61 136.916Z" fill="#ECC19C"/>
<path d="M187.944 93.5479C185.357 108.52 178.704 122.496 168.714 133.942H124.481C134.47 122.49 141.117 108.52 143.704 93.5479H187.944Z" fill="url(#paint17_linear_1647_1090)"/>
<path d="M181.45 74.841C181.229 74.4908 180.959 74.1775 180.639 73.9133C181.475 73.557 182.108 72.8382 182.36 71.9658L185.407 61.405C185.99 59.4145 184.842 57.3319 182.851 56.7482C180.86 56.1646 178.778 57.3134 178.194 59.3039C178.145 59.4698 178.108 59.6357 178.084 59.8016L176.431 70.6634C176.296 71.5603 176.572 72.4757 177.18 73.1515C175.786 73.5386 174.723 74.669 174.416 76.082C173.955 78.1585 175.258 80.2105 177.334 80.6774L177.69 80.7388C179.804 81.0153 181.745 79.5286 182.028 77.409C182.145 76.5121 181.948 75.6028 181.463 74.8349L181.45 74.841Z" fill="white"/>
<path d="M180.928 71.548L183.975 60.9873C184.319 59.7831 183.625 58.5237 182.415 58.1735C182.372 58.1612 182.323 58.1489 182.28 58.1366C181.051 57.8725 179.841 58.6466 179.576 59.8753C179.564 59.9244 179.558 59.9674 179.552 60.0166L177.899 70.8784C177.776 71.6894 178.305 72.4573 179.11 72.6355C179.908 72.8075 180.701 72.3344 180.928 71.548Z" fill="#0065FF"/>
<path d="M175.859 76.3955C175.571 77.6611 176.363 78.9267 177.635 79.2154C177.709 79.2339 177.788 79.2461 177.862 79.2584C179.165 79.4796 180.399 78.6072 180.621 77.3048C180.842 76.0023 179.969 74.7675 178.667 74.5463C177.377 74.2883 176.124 75.1115 175.859 76.3955Z" fill="#0065FF"/>
<path d="M192.208 74.7794C192.109 74.3739 191.956 73.993 191.735 73.6366C192.644 73.5629 193.467 73.0899 193.989 72.3465L200.274 63.3277C201.466 61.6321 201.054 59.2853 199.359 58.0934C197.663 56.9016 195.316 57.3132 194.125 59.0088C194.026 59.1501 193.94 59.2976 193.86 59.445L188.798 69.201C188.38 70.0119 188.35 70.9581 188.712 71.7936C187.268 71.7137 185.892 72.4387 185.149 73.6797C184.049 75.492 184.62 77.8573 186.433 78.9631L186.746 79.1351C188.663 80.0751 190.979 79.2887 191.919 77.3719C192.318 76.561 192.417 75.6394 192.208 74.7671V74.7794Z" fill="white"/>
<path d="M192.779 71.5051L199.064 62.4864C199.782 61.4543 199.531 60.0412 198.498 59.3224C198.462 59.2979 198.419 59.2672 198.382 59.2426C197.307 58.5975 195.906 58.9415 195.261 60.0167C195.236 60.0535 195.212 60.0965 195.193 60.1395L190.131 69.8955C189.75 70.6205 190.002 71.5174 190.702 71.9413C191.403 72.3591 192.306 72.1686 192.779 71.5051Z" fill="#253858"/>
<path d="M186.414 74.4292C185.732 75.535 186.07 76.9849 187.176 77.673C187.243 77.716 187.317 77.7529 187.391 77.7897C188.552 78.4225 190.002 77.9863 190.635 76.8252C191.267 75.664 190.831 74.2142 189.67 73.5814C188.534 72.924 187.078 73.2988 186.414 74.4292Z" fill="#253858"/>
<path d="M141.019 97.8177C138.298 97.8976 135.687 96.718 133.948 94.6231C130.797 90.5991 132.222 84.3142 137.131 80.6035C139.293 78.9386 141.941 78.0109 144.675 77.974C147.396 77.8942 150.008 79.0737 151.746 81.1687C154.898 85.1927 153.472 91.4776 148.564 95.1883C146.401 96.8593 143.753 97.7809 141.019 97.8177Z" fill="url(#paint18_linear_1647_1090)"/>
<path d="M141.019 95.8401C138.298 95.92 135.687 94.7404 133.948 92.6455C130.797 88.6214 132.222 82.3366 137.131 78.6259C139.293 76.961 141.941 76.0333 144.675 75.9964C147.403 75.9227 150.014 77.1084 151.758 79.2095C154.91 83.2335 153.485 89.5184 148.576 93.2291C146.401 94.894 143.753 95.8094 141.019 95.8401Z" fill="white"/>
<path d="M147.618 91.994C143.52 95.0842 138.058 94.8753 135.435 91.5209C132.812 88.1665 133.991 82.9383 138.089 79.8358C142.187 76.7333 147.648 76.9545 150.272 80.3089C152.895 83.6633 151.709 88.9037 147.618 91.994Z" fill="#FFC400"/>
<path d="M142.15 82.84C141.775 83.1779 141.204 83.1533 140.853 82.7908C140.589 82.3731 140.712 81.814 141.136 81.5498C141.511 81.2119 142.082 81.2365 142.432 81.599C142.697 82.0167 142.574 82.5697 142.15 82.84Z" fill="#FF991F"/>
<path d="M146.862 88.547C146.487 88.8849 145.916 88.8603 145.566 88.4979C145.301 88.0801 145.424 87.521 145.848 87.2569C146.223 86.919 146.794 86.9435 147.145 87.306C147.409 87.7238 147.286 88.2767 146.862 88.547Z" fill="#FF991F"/>
<path d="M138.863 84.2837C138.458 85.6906 138.74 87.208 139.619 88.3814C140.559 89.518 141.972 90.1631 143.452 90.1385L138.863 84.2837Z" fill="#FF991F"/>
<path d="M256.537 166.798C257.329 168.303 258.104 169.888 258.828 171.578C261.538 177.819 263.35 184.411 264.223 191.163L270.575 215.412L267.036 216.419C264.868 208.525 262.029 200.827 258.558 193.418C258.079 192.429 257.612 191.409 256.672 189.375C250.983 176.996 250.4 174.791 251.057 172.554C251.487 171.227 252.599 168.917 256.537 166.798Z" fill="url(#paint19_linear_1647_1090)"/>
<path d="M221.168 137.395C221.685 137.954 223.091 137.776 223.822 137.008C224.246 136.51 224.455 135.865 224.394 135.214C224.351 134.532 224.074 134.464 223.89 133.733C223.521 132.24 224.32 130.999 223.976 130.809C223.896 130.76 223.73 130.772 223.399 131.055C223.343 130.975 223.257 130.926 223.159 130.913C222.932 130.913 222.772 131.294 222.704 131.472C222.207 132.56 221.783 133.678 221.433 134.821C221.082 136.35 220.91 137.124 221.168 137.395Z" fill="#926D5A"/>
<path d="M225.493 133.727C225.524 134.139 225.438 134.55 225.248 134.913C224.941 135.521 223.97 137.407 223.343 137.223C223.042 137.137 222.95 136.596 222.938 136.326C222.938 135.798 223.62 135.533 223.693 134.962C223.693 134.833 223.736 134.765 223.761 134.636C223.841 134.305 223.884 134.139 223.958 134.12C224.031 134.102 224.222 134.477 224.449 134.483C224.842 134.483 225.131 133.273 225.334 133.316C225.457 133.322 225.475 133.629 225.493 133.727Z" fill="#926D5A"/>
<path d="M221.611 132.676C221.451 133.15 221.383 133.653 221.408 134.151C221.31 135.969 220.965 137.088 221.101 137.118C221.236 137.155 221.34 136.774 221.42 136.578C222.102 134.98 223.208 131.601 222.71 131.392C222.464 131.3 221.881 132.001 221.611 132.676Z" fill="#926D5A"/>
<path d="M245.312 169.347C239.157 184.153 234.954 199.691 232.804 215.584L236.576 215.621C237.35 212.567 238.499 208.218 240.029 203.002C241.233 198.904 241.737 196.004 243.568 192.159C244.323 190.383 245.276 188.7 246.394 187.133C250.737 181.327 255.462 181.45 257.999 176.517C258.435 175.657 259.516 173.55 258.847 171.565C258.742 171.258 258.478 170.705 257.944 169.605C257.409 168.506 256.942 167.56 256.623 166.945C253.004 168.315 249.189 169.126 245.312 169.347Z" fill="url(#paint20_linear_1647_1090)"/>
<path d="M232.743 212.88C232.596 214.263 232.331 215.633 231.957 216.978C231.49 218.661 230.077 219.909 228.35 220.167L225.094 220.652V221.217L230.163 222.44C230.63 222.354 231.938 222.133 232.116 222.538C232.159 222.624 232.159 222.778 231.975 223.03C232.43 223.128 232.903 223.208 233.394 223.281C233.886 223.355 234.359 223.066 234.512 222.599C235.194 220.419 237.142 214.515 237.246 213.673L232.743 212.88Z" fill="#344563"/>
<path d="M266.25 214.459C266.489 214.938 266.932 216.21 267.368 217.482C267.988 219.343 267.429 221.395 265.955 222.685L264.216 224.209L264.474 224.658L268.965 223.103C269.279 222.808 270.176 221.997 270.513 222.219C270.587 222.268 270.655 222.384 270.642 222.667C271.257 222.427 271.89 222.163 272.535 221.856L272.694 221.475C272.627 221.279 272.547 221.033 272.455 220.744C271.638 218.176 270.507 213.74 270.108 212.88L266.25 214.459Z" fill="#344563"/>
<path d="M251.641 118.564L251.051 117.839C250.559 117.237 250.357 116.445 250.498 115.683L250.559 114.049C250.934 113.711 251.284 113.342 251.604 112.949C252.028 112.439 252.2 112.132 252.286 112.163C252.372 112.2 252.396 112.581 251.972 114.209C252.912 113.803 253.828 113.336 254.706 112.802C255.917 112.071 256.906 111.309 257.569 111.622C257.649 111.665 257.919 111.788 257.95 112.015C257.987 112.249 257.643 112.525 257.618 112.55C257.747 112.55 257.938 112.654 257.993 112.796C258.048 112.937 257.753 113.336 257.526 113.527C256.586 114.35 254.215 115.972 253.631 116.365L253.754 117.287L251.641 118.564Z" fill="#926D5A"/>
<path d="M239.046 153.018C242.536 151.82 245.951 150.431 249.287 148.859L249.761 148.465L249.871 148.367L249.988 148.263C252.083 146.401 253.785 142.211 253.785 142.211C254.7 139.957 255.492 137.647 256.168 135.306C255.431 133.457 254.847 131.552 254.411 129.611C253.551 125.746 253.668 123.301 251.941 120.15C251.53 119.394 251.051 118.681 250.522 118.006L253.871 116.439C255.05 117.711 256.119 119.081 257.065 120.537C259.332 124.026 260.886 127.934 261.636 132.031C261.826 137.622 260.61 143.176 258.097 148.17C256.85 150.622 255.296 152.901 253.465 154.959C253.459 156.44 253.588 157.914 253.852 159.37C254.387 162.233 255.437 164.979 256.955 167.467L244.36 171.491C245.417 169.181 245.386 167.627 245.005 166.718C244.158 164.672 241.897 164.316 241.061 161.864C240.797 161.066 240.717 160.212 240.828 159.376C239.243 159.518 232.571 159.935 226.753 155.279C218.379 148.576 219.583 137.616 219.669 136.946L224.154 138.009C223.958 140.344 224.203 142.697 224.885 144.939C226.962 150.911 233.677 154.627 239.046 153.018Z" fill="url(#paint21_linear_1647_1090)"/>
<path d="M240.84 142.297C241.012 142.353 241.19 142.39 241.368 142.414C241.878 142.476 242.37 142.648 242.812 142.912C243.568 143.44 243.07 144.46 243.727 145.941C243.9 146.321 244.022 146.721 244.096 147.138C244.133 147.335 244.151 147.532 244.164 147.734C244.164 148.22 244.489 149.203 245.595 151.347L244.913 151.156L242.831 150.358C241.338 149.362 241 149.203 240.994 148.496C240.994 147.642 240.994 146.156 240.932 146.1C240.447 145.633 239.82 145.541 240.306 144.964C240.576 144.638 240.791 144.405 240.858 144.337C241.061 144.079 241.215 143.606 240.84 142.297Z" fill="#926D5A"/>
<path d="M242.751 142.869C242.524 145.775 242.917 148.699 243.9 151.445L243.998 151.71C245.159 154.861 248.655 156.471 251.8 155.31C252.132 155.187 252.445 155.039 252.753 154.861L253.078 154.652L253.134 154.609C254.921 153.362 255.357 150.899 254.104 149.111C254.006 148.97 253.895 148.828 253.772 148.699C252.875 147.71 252.114 146.61 251.505 145.425C250.019 142.488 250.221 140.412 248.243 139.281C246.972 138.667 245.546 138.427 244.145 138.599C243.402 138.599 242.677 138.814 242.057 139.214C241.577 139.576 241.184 140.043 240.908 140.577C240.613 141.118 240.441 141.72 240.404 142.334C241.209 142.384 242.001 142.586 242.739 142.924L242.751 142.869Z" fill="#172B4D"/>
<path d="M163.523 136.492L163.836 135.22L164.678 133.77L165.36 130.545C165.292 130.533 165.225 130.533 165.157 130.545C164.475 130.649 164.254 131.909 164.242 131.989L164.862 128.511C164.715 128.389 164.488 128.241 164.303 128.309C164.119 128.376 163.996 128.911 163.91 129.543C163.818 130.213 163.683 130.883 163.517 131.54L163.757 128.124C163.621 128.075 163.474 128.075 163.339 128.124C163.154 128.253 163.038 128.462 163.025 128.683C162.853 129.55 162.743 131.264 162.731 131.417L162.374 128.001C162.196 128.008 162.018 128.075 161.883 128.192C161.625 128.444 161.705 128.825 161.766 130.035C161.809 130.846 161.883 131.337 161.563 131.638C161.514 131.688 161.453 131.731 161.391 131.761C161.416 131.251 161.182 130.766 160.777 130.459C160.574 130.336 160.335 130.268 160.095 130.275C160.144 130.447 160.193 130.631 160.236 130.821C160.378 131.405 160.47 132.001 160.507 132.597L160.771 134.305L160.531 135.601L163.523 136.492Z" fill="#F1DAD5"/>
<path d="M137.45 151.992H142.285C141.548 150.271 141.363 148.361 141.769 146.53L138.82 146.389C138.783 146.561 138.734 146.813 138.642 147.114C138.599 147.409 138.488 147.691 138.322 147.931C137.991 148.244 137.345 148.06 137.155 147.998L137.45 151.992Z" fill="url(#paint22_linear_1647_1090)"/>
<path d="M148.711 135.724C149.608 140.086 149.928 144.552 149.651 149C147.679 151.199 145.228 152.919 142.488 154.025C141.106 154.615 139.625 154.941 138.126 154.99C135.785 154.99 132.615 154.308 132.474 153.098C132.333 151.887 135.251 150.364 137.327 149.799C137.985 149.627 138.661 149.498 139.336 149.418C141.714 148.981 143.969 148.048 145.965 146.684L146.561 136.442L148.711 135.724Z" fill="#253858"/>
<path d="M135.865 169.483C136.062 168.635 136.375 167.818 136.793 167.05C137.161 167.16 137.53 167.259 137.905 167.332C138.322 167.412 138.648 167.449 138.82 167.468C139.803 167.609 141.683 167.836 146.739 168.217C147.083 168.653 147.396 169.108 147.685 169.581C148.619 171.068 149.295 172.702 149.694 174.41C152.944 187.723 155.383 201.226 157.005 214.834C156.495 215.529 155.825 216.088 155.051 216.462C154.658 216.622 154.677 216.905 153.939 216.979C153.528 215.375 152.87 212.942 151.893 210.018C150.585 205.994 149.928 204.747 149.307 202.302C148.558 199.279 148.269 196.158 148.453 193.049C147.495 191.311 146.506 189.554 145.498 187.778C144.417 185.837 143.366 183.914 142.346 182.003C142.543 185.13 142.666 188.386 142.69 191.765C142.74 198.376 142.42 204.992 141.726 211.566C141.419 211.8 141.056 211.953 140.675 212.008C140.294 212.064 139.901 212.021 139.539 211.886C138.949 211.726 138.421 211.406 138.003 210.958C137.143 205.14 137.063 199.23 137.769 193.387C136.848 190.795 136.16 188.116 135.724 185.401C135.724 185.401 134.169 178.993 135.042 173.261C135.201 172.321 135.699 170.195 135.865 169.483Z" fill="#344563"/>
<path d="M165.047 220.019L162.313 219.159C159.475 218.262 157.404 215.805 157.017 212.85C156.95 212.322 156.544 210.116 156.378 209.158C155.659 209.01 154.922 208.992 154.197 209.102C153.202 209.268 152.262 209.686 151.463 210.306C152.09 211.707 152.6 213.157 152.975 214.644C153.362 216.21 153.607 217.814 153.712 219.424C153.755 220.05 153.761 220.572 153.761 220.91H156.458L156.907 220.407L157.589 220.886H164.414L165.047 220.019Z" fill="#172B4D"/>
<path d="M137.628 207.585C139.103 206.62 141.013 206.62 142.488 207.585C142.328 208.291 142.211 209.004 142.144 209.723C142.002 211.314 141.923 212.223 142.488 212.715C142.961 213.071 143.581 213.175 144.146 213.003L144.491 213.139C143.084 214.853 142.027 216.155 141.388 217.034C141.142 217.396 140.798 217.679 140.399 217.844C139.932 218.053 139.391 218.029 138.949 217.771C138.654 217.55 138.458 217.218 138.402 216.849L137.628 207.585Z" fill="#172B4D"/>
<path d="M142.961 142.42C143.176 143.661 143.833 144.785 144.81 145.572L144.171 146.254L143.661 149.135C143.01 149.411 142.316 149.583 141.615 149.663C140.694 149.761 139.49 149.89 138.992 149.215C138.734 148.779 138.642 148.262 138.74 147.765C138.771 147.359 138.838 146.96 138.937 146.567C139.182 145.94 139.539 145.363 139.993 144.865C140.466 144.165 141.056 143.55 141.732 143.047C142.113 142.795 142.525 142.58 142.961 142.42Z" fill="#ECC19C"/>
<path d="M159.634 151.986C155.61 154.585 151.144 156.434 146.463 157.448C146.715 161.435 147.532 165.367 148.902 169.126C144.785 171.117 140.067 171.473 135.693 170.128C135.797 166.571 135.263 163.02 134.114 159.647C133.537 157.957 132.805 156.329 131.933 154.769C132.566 154.173 133.254 153.632 133.979 153.153C133.979 153.153 134.182 153.018 134.489 152.834C134.489 152.834 135.054 152.49 135.65 152.201C138.126 150.966 142.672 150.542 142.672 150.542C148.865 149.971 148.656 150.075 149.848 149.86C152.09 149.498 154.277 148.883 156.384 148.029L160.71 134.864L164.125 135.761C163.572 138.574 162.866 141.591 161.969 144.761C161.201 147.335 160.445 149.743 159.634 151.986Z" fill="#505F79"/>
<path d="M133.512 144.945C131.663 148.299 130.379 148.121 130.041 150.142C129.746 151.942 130.366 154.492 132.363 155.561C134.624 156.777 137.1 155.278 137.241 155.192C138.218 154.553 138.974 153.626 139.404 152.538C140.54 149.878 138.888 148.662 140.086 146.677C140.559 145.885 141.032 145.719 142.776 143.452C143.157 143.022 143.397 142.487 143.458 141.916C143.477 141.259 143.256 140.614 142.838 140.104C141.818 138.838 140.018 138.906 139.471 138.936C138.347 138.992 137.26 139.385 136.356 140.061C134.765 141.265 134.907 142.42 133.512 144.945Z" fill="#172B4D"/>
<g opacity="0.7">
<path opacity="0.7" d="M147.108 106.284L174.877 106.413" stroke="#0065FF" stroke-width="1.45197" stroke-miterlimit="10"/>
<path opacity="0.7" d="M145.209 110.897L172.972 111.026" stroke="#0065FF" stroke-width="1.45197" stroke-miterlimit="10"/>
<path opacity="0.7" d="M143.44 115.192L164.74 115.29" stroke="#0065FF" stroke-width="1.45197" stroke-miterlimit="10"/>
</g>
</g>
<defs>
<linearGradient id="paint0_linear_1647_1090" x1="78.1968" y1="105.479" x2="328.633" y2="105.479" gradientUnits="userSpaceOnUse">
<stop stop-color="#FAFBFC"/>
<stop offset="0.07" stop-color="#F7F8F9"/>
<stop offset="0.36" stop-color="#EEEFF2"/>
<stop offset="0.8" stop-color="#EBECF0"/>
</linearGradient>
<linearGradient id="paint1_linear_1647_1090" x1="80.6141" y1="205.478" x2="267.466" y2="18.6332" gradientUnits="userSpaceOnUse">
<stop stop-color="#F7F8F9"/>
<stop offset="0.7" stop-color="#C1C7D0"/>
</linearGradient>
<linearGradient id="paint2_linear_1647_1090" x1="59.303" y1="211.2" x2="257.596" y2="12.9134" gradientUnits="userSpaceOnUse">
<stop offset="0.47" stop-color="#CFD4DB"/>
<stop offset="1" stop-color="#F7F8F9"/>
</linearGradient>
<linearGradient id="paint3_linear_1647_1090" x1="142.86" y1="209.27" x2="142.86" y2="14.8419" gradientUnits="userSpaceOnUse">
<stop stop-color="#EBECF0"/>
<stop offset="0.1" stop-color="#EBECF0"/>
<stop offset="0.8" stop-color="#EBECF0"/>
</linearGradient>
<linearGradient id="paint4_linear_1647_1090" x1="31.1983" y1="218.438" x2="245.817" y2="3.81871" gradientUnits="userSpaceOnUse">
<stop offset="0.16" stop-color="#F0F2F5"/>
<stop offset="1" stop-color="white"/>
</linearGradient>
<linearGradient id="paint5_linear_1647_1090" x1="19.5925" y1="212.642" x2="233.917" y2="-1.68246" gradientUnits="userSpaceOnUse">
<stop offset="0.16" stop-color="#F0F2F5"/>
<stop offset="1" stop-color="white"/>
</linearGradient>
<linearGradient id="paint6_linear_1647_1090" x1="195.532" y1="22.2519" x2="210.367" y2="22.2519" gradientUnits="userSpaceOnUse">
<stop offset="0.37" stop-color="#E5E8EC"/>
<stop offset="0.52" stop-color="#E5E8EC" stop-opacity="0.99"/>
<stop offset="0.61" stop-color="#E4E7EB" stop-opacity="0.95"/>
<stop offset="0.68" stop-color="#E3E6EA" stop-opacity="0.89"/>
<stop offset="0.74" stop-color="#E1E4E9" stop-opacity="0.81"/>
<stop offset="0.8" stop-color="#DEE2E7" stop-opacity="0.7"/>
<stop offset="0.85" stop-color="#DBDFE5" stop-opacity="0.56"/>
<stop offset="0.91" stop-color="#D8DCE2" stop-opacity="0.4"/>
<stop offset="0.95" stop-color="#D4D8DF" stop-opacity="0.22"/>
<stop offset="1" stop-color="#CFD4DB" stop-opacity="0"/>
</linearGradient>
<linearGradient id="paint7_linear_1647_1090" x1="133.095" y1="22.2519" x2="147.929" y2="22.2519" gradientUnits="userSpaceOnUse">
<stop offset="0.37" stop-color="#E5E8EC"/>
<stop offset="0.52" stop-color="#E5E8EC" stop-opacity="0.99"/>
<stop offset="0.61" stop-color="#E4E7EB" stop-opacity="0.95"/>
<stop offset="0.68" stop-color="#E3E6EA" stop-opacity="0.89"/>
<stop offset="0.74" stop-color="#E1E4E9" stop-opacity="0.81"/>
<stop offset="0.8" stop-color="#DEE2E7" stop-opacity="0.7"/>
<stop offset="0.85" stop-color="#DBDFE5" stop-opacity="0.56"/>
<stop offset="0.91" stop-color="#D8DCE2" stop-opacity="0.4"/>
<stop offset="0.95" stop-color="#D4D8DF" stop-opacity="0.22"/>
<stop offset="1" stop-color="#CFD4DB" stop-opacity="0"/>
</linearGradient>
<linearGradient id="paint8_linear_1647_1090" x1="70.6675" y1="22.2519" x2="85.5052" y2="22.2519" gradientUnits="userSpaceOnUse">
<stop offset="0.37" stop-color="#E5E8EC"/>
<stop offset="0.52" stop-color="#E5E8EC" stop-opacity="0.99"/>
<stop offset="0.61" stop-color="#E4E7EB" stop-opacity="0.95"/>
<stop offset="0.68" stop-color="#E3E6EA" stop-opacity="0.89"/>
<stop offset="0.74" stop-color="#E1E4E9" stop-opacity="0.81"/>
<stop offset="0.8" stop-color="#DEE2E7" stop-opacity="0.7"/>
<stop offset="0.85" stop-color="#DBDFE5" stop-opacity="0.56"/>
<stop offset="0.91" stop-color="#D8DCE2" stop-opacity="0.4"/>
<stop offset="0.95" stop-color="#D4D8DF" stop-opacity="0.22"/>
<stop offset="1" stop-color="#CFD4DB" stop-opacity="0"/>
</linearGradient>
<linearGradient id="paint9_linear_1647_1090" x1="28.5984" y1="119.696" x2="211.118" y2="119.696" gradientUnits="userSpaceOnUse">
<stop stop-color="#FAFBFC"/>
<stop offset="0.07" stop-color="#F7F8F9"/>
<stop offset="0.36" stop-color="#EEEFF2"/>
<stop offset="0.8" stop-color="#EBECF0"/>
</linearGradient>
<linearGradient id="paint10_linear_1647_1090" x1="76.0586" y1="144.019" x2="112.126" y2="144.019" gradientUnits="userSpaceOnUse">
<stop stop-color="#0065FF"/>
<stop offset="1" stop-color="#2684FF"/>
</linearGradient>
<linearGradient id="paint11_linear_1647_1090" x1="194.58" y1="76.4521" x2="218.983" y2="76.4521" gradientUnits="userSpaceOnUse">
<stop stop-color="#0065FF"/>
<stop offset="1" stop-color="#2684FF"/>
</linearGradient>
<linearGradient id="paint12_linear_1647_1090" x1="110.196" y1="147.373" x2="127.839" y2="144.811" gradientUnits="userSpaceOnUse">
<stop stop-color="#FAFBFC"/>
<stop offset="0.07" stop-color="#F7F8F9"/>
<stop offset="0.36" stop-color="#EEEFF2"/>
<stop offset="0.8" stop-color="#EBECF0"/>
</linearGradient>
<linearGradient id="paint13_linear_1647_1090" x1="188.116" y1="105.525" x2="200.769" y2="118.067" gradientUnits="userSpaceOnUse">
<stop stop-color="#FAFBFC"/>
<stop offset="0.07" stop-color="#F7F8F9"/>
<stop offset="0.36" stop-color="#EEEFF2"/>
<stop offset="0.8" stop-color="#EBECF0"/>
</linearGradient>
<linearGradient id="paint14_linear_1647_1090" x1="176.054" y1="69.8423" x2="187.285" y2="69.8423" gradientUnits="userSpaceOnUse">
<stop stop-color="#FAFBFC"/>
<stop offset="0.07" stop-color="#F7F8F9"/>
<stop offset="0.36" stop-color="#EEEFF2"/>
<stop offset="0.8" stop-color="#EBECF0"/>
</linearGradient>
<linearGradient id="paint15_linear_1647_1090" x1="187.623" y1="68.7098" x2="198.575" y2="71.2165" gradientUnits="userSpaceOnUse">
<stop stop-color="#FAFBFC"/>
<stop offset="0.07" stop-color="#F7F8F9"/>
<stop offset="0.36" stop-color="#EEEFF2"/>
<stop offset="0.8" stop-color="#EBECF0"/>
</linearGradient>
<linearGradient id="paint16_linear_1647_1090" x1="165.573" y1="139.601" x2="165.573" y2="93.544" gradientUnits="userSpaceOnUse">
<stop stop-color="#FAFBFC" stop-opacity="0"/>
<stop offset="0.46" stop-color="#7A869A"/>
</linearGradient>
<linearGradient id="paint17_linear_1647_1090" x1="156.211" y1="133.947" x2="156.211" y2="93.5506" gradientUnits="userSpaceOnUse">
<stop stop-color="#0065FF"/>
<stop offset="0.02" stop-color="#0569FF"/>
<stop offset="0.15" stop-color="#1F7BFF"/>
<stop offset="0.3" stop-color="#3389FF"/>
<stop offset="0.46" stop-color="#4192FF"/>
<stop offset="0.66" stop-color="#4A98FF"/>
<stop offset="1" stop-color="#4C9AFF"/>
</linearGradient>
<linearGradient id="paint18_linear_1647_1090" x1="132.268" y1="87.8969" x2="153.423" y2="87.8969" gradientUnits="userSpaceOnUse">
<stop stop-color="#FAFBFC"/>
<stop offset="0.12" stop-color="#EBECEF"/>
<stop offset="0.26" stop-color="#E2E4E7"/>
<stop offset="0.46" stop-color="#DFE1E5"/>
</linearGradient>
<linearGradient id="paint19_linear_1647_1090" x1="257.731" y1="181.011" x2="267.058" y2="205.204" gradientUnits="userSpaceOnUse">
<stop offset="0.25" stop-color="#0065FF"/>
<stop offset="0.37" stop-color="#0065FF"/>
<stop offset="0.76" stop-color="#4C9AFF"/>
</linearGradient>
<linearGradient id="paint20_linear_1647_1090" x1="245.932" y1="215.613" x2="245.932" y2="166.934" gradientUnits="userSpaceOnUse">
<stop stop-color="#4C9AFF"/>
<stop offset="1" stop-color="#0065FF"/>
</linearGradient>
<linearGradient id="paint21_linear_1647_1090" x1="240.602" y1="171.495" x2="240.602" y2="116.446" gradientUnits="userSpaceOnUse">
<stop stop-color="#B2D4FF"/>
<stop offset="1" stop-color="#2684FF"/>
</linearGradient>
<linearGradient id="paint22_linear_1647_1090" x1="142.282" y1="149.191" x2="137.154" y2="149.191" gradientUnits="userSpaceOnUse">
<stop offset="0.38" stop-color="#F1DBCB"/>
<stop offset="1" stop-color="#EFC7B0"/>
</linearGradient>
<clipPath id="clip0_1647_1090">
<rect width="349.679" height="228" fill="white"/>
</clipPath>
</defs>
</svg>
