<svg width="20" height="20" viewBox="0 0 20 20" fill="none" xmlns="http://www.w3.org/2000/svg">
<rect width="20" height="20" fill="white" fill-opacity="0.01"/>
<path fill-rule="evenodd" clip-rule="evenodd" d="M4.16671 4.16671C3.94569 4.16671 3.73373 4.2545 3.57745 4.41079C3.42117 4.56707 3.33337 4.77903 3.33337 5.00004V5.83337H16.6667V5.00004C16.6667 4.77903 16.5789 4.56707 16.4226 4.41079C16.2663 4.2545 16.0544 4.16671 15.8334 4.16671H4.16671ZM13.4584 16.6667H6.53754C6.34041 16.6666 6.14968 16.5967 5.99924 16.4693C5.8488 16.3419 5.7484 16.1653 5.71587 15.9709L4.16671 6.66671H15.8334L14.28 15.9717C14.2475 16.1661 14.1471 16.3426 13.9966 16.4698C13.8461 16.5971 13.6554 16.6668 13.4584 16.6667ZM7.50004 3.75004C7.50002 3.64082 7.54289 3.53596 7.61942 3.45803C7.69594 3.38011 7.8 3.33534 7.90921 3.33337H12.0909C12.2001 3.33534 12.3041 3.38011 12.3807 3.45803C12.4572 3.53596 12.5001 3.64082 12.5 3.75004V4.16671H7.50004V3.75004Z" fill="#BF2600"/>
</svg>
