<svg width="20" height="20" viewBox="0 0 20 20" fill="none" xmlns="http://www.w3.org/2000/svg">
<rect width="20" height="20" fill="white" fill-opacity="0.01"/>
<path fill-rule="evenodd" clip-rule="evenodd" d="M3.35001 16.025C3.32242 16.16 3.32873 16.2998 3.36838 16.4317C3.40803 16.5637 3.47978 16.6838 3.57721 16.7812C3.67464 16.8786 3.7947 16.9504 3.92666 16.99C4.05862 17.0297 4.19835 17.036 4.33334 17.0084L7.50834 16.3584L4.00001 12.85L3.35001 16.025ZM16.5367 5.58921L14.77 3.82088C14.6151 3.66594 14.4311 3.54312 14.2286 3.45947C14.0261 3.37581 13.8091 3.33296 13.59 3.33338C13.1633 3.33338 12.7367 3.49588 12.4108 3.82088L4.28001 11.9525L8.40501 16.0775L16.5358 7.94588C16.8483 7.63333 17.0238 7.20948 17.0238 6.76754C17.0238 6.3256 16.8483 5.90176 16.5358 5.58921H16.5367Z" fill="#FF8B00"/>
</svg>
