<svg width="40" height="41" viewBox="0 0 40 41" fill="none" xmlns="http://www.w3.org/2000/svg">
<g clip-path="url(#clip0_84_12)">
<path d="M37.4194 12.1129C38.8426 12.1129 40 10.9555 40 9.53226V8.24194C40 6.81867 38.8426 5.66129 37.4194 5.66129H32.2581V4.37097C32.9697 4.37097 33.5484 3.79228 33.5484 3.08065V1.79032C33.5484 1.07869 32.9697 0.5 32.2581 0.5H1.29032C0.578692 0.5 0 1.07869 0 1.79032V3.08065C0 3.79228 0.578692 4.37097 1.29032 4.37097V17.6412L0 16.4227V40.5H25.4936L7.7328 23.7258H25.8064V34.6935C25.8064 35.7605 26.675 36.629 27.7419 36.629H38.0645C39.1315 36.629 40 35.7605 40 34.6935V17.9194C40 16.8524 39.1315 15.9839 38.0645 15.9839H32.2581V12.1129H37.4194ZM34.8387 8.24194H20.6452V6.95161H34.8387V8.24194ZM19.3548 10.2625L17.2924 8.8871L19.3548 7.51172V10.2625ZM20.6452 9.53226H34.8387V10.8226H20.6452V9.53226ZM38.7097 8.24194V9.53226C38.7097 10.2439 38.131 10.8226 37.4194 10.8226H36.129V6.95161H37.4194C38.131 6.95161 38.7097 7.5303 38.7097 8.24194ZM1.29032 1.79032H32.2581L32.2587 3.08065H1.29032V1.79032ZM1.29032 39.2097V37.9194H2.58065V36.629H1.29032V35.3387H2.58065V34.0484H1.29032V32.7581H2.58065V31.4677H1.29032V30.1774H2.58065V28.8871H1.29032V27.5968H2.58065V26.3064H1.29032V25.0161H2.58065V23.7258H1.29032V19.416L22.2483 39.2097H1.29032ZM38.7097 17.9194V34.6935C38.7097 35.0495 38.4199 35.3387 38.0645 35.3387H27.7419C27.3866 35.3387 27.0968 35.0495 27.0968 34.6935V17.9194C27.0968 17.5634 27.3866 17.2742 27.7419 17.2742H38.0645C38.4199 17.2742 38.7097 17.5634 38.7097 17.9194ZM30.9677 15.9839H20V17.2742H25.9252C25.8528 17.4768 25.8064 17.6922 25.8064 17.9194V18.5645H20V19.8548H25.8064V22.4355H6.36656L2.58065 18.86V4.37097H30.9677V5.66129H19.8044L14.9657 8.8871L19.8044 12.1129H30.9677V15.9839Z" fill="#403294"/>
<path d="M13.5485 8.24194H9.11303L7.94714 16.9819L6.11624 14.6935H3.87109V15.9839H5.49691L8.82731 20.1472L10.2421 9.53226H13.5485V8.24194Z" fill="#403294"/>
<path d="M17.6084 11.6568L14.8387 14.4264L12.069 11.6568L11.1567 12.5691L13.9264 15.3387L11.1567 18.1084L12.069 19.0207L14.8387 16.251L17.6084 19.0207L18.5206 18.1084L15.751 15.3387L18.5206 12.5691L17.6084 11.6568Z" fill="#403294"/>
<path d="M20 13.4032H29.6774V14.6935H20V13.4032Z" fill="#403294"/>
<path d="M3.87109 25.4033V36.629H15.7568L3.87109 25.4033ZM5.16142 28.3969L12.5118 35.3387H5.16142V28.3969Z" fill="#403294"/>
<path d="M37.4195 18.5645H28.3872V23.7258H37.4195V18.5645ZM36.1291 22.4355H29.6775V19.8548H36.1291V22.4355Z" fill="#403294"/>
<path d="M33.5483 26.3064H37.4193V27.5968H33.5483V26.3064Z" fill="#403294"/>
<path d="M28.3872 30.1774H32.2582V31.4677H28.3872V30.1774Z" fill="#403294"/>
<path d="M28.3872 32.7581H32.2582V34.0484H28.3872V32.7581Z" fill="#403294"/>
<path d="M29.6775 28.8871H30.9679V27.5968H32.2582V26.3065H30.9679V25.0161H29.6775V26.3065H28.3872V27.5968H29.6775V28.8871Z" fill="#403294"/>
<path d="M36.318 30.3664L35.4838 31.2006L34.6496 30.3664L33.7373 31.2787L34.5715 32.1129L33.7373 32.9471L34.6496 33.8594L35.4838 33.0252L36.318 33.8594L37.2303 32.9471L36.3961 32.1129L37.2303 31.2787L36.318 30.3664Z" fill="#403294"/>
</g>
<defs>
<clipPath id="clip0_84_12">
<rect width="40" height="40" fill="white" transform="translate(0 0.5)"/>
</clipPath>
</defs>
</svg>
