<svg width="8" height="7" viewBox="0 0 8 7" fill="none" xmlns="http://www.w3.org/2000/svg">
<path fill-rule="evenodd" clip-rule="evenodd" d="M0.29158 0.851604C0.104773 1.07832 0 1.38432 0 1.70318C0 2.02205 0.104773 2.32805 0.29158 2.55476L3.23058 6.11352C3.44858 6.37157 3.73058 6.5 4.00958 6.5C4.28858 6.5 4.56558 6.37157 4.77858 6.11352L7.70858 2.56677C7.89515 2.3399 7.99976 2.03396 7.99976 1.71519C7.99976 1.39642 7.89515 1.09048 7.70858 0.863607C7.61675 0.751761 7.50731 0.662945 7.38662 0.602323C7.26593 0.5417 7.13641 0.510482 7.00558 0.510482C6.87475 0.510482 6.74523 0.5417 6.62454 0.602323C6.50385 0.662945 6.39441 0.751761 6.30258 0.863607L4.00458 3.6446L1.69758 0.851604C1.60554 0.740195 1.49604 0.651765 1.37538 0.591418C1.25472 0.53107 1.1253 0.5 0.99458 0.5C0.863865 0.5 0.734443 0.53107 0.613784 0.591418C0.493125 0.651765 0.383617 0.740195 0.29158 0.851604Z" fill="#403294"/>
</svg>
