<svg width="93" height="68" viewBox="0 0 93 68" fill="none" xmlns="http://www.w3.org/2000/svg">
<g clip-path="url(#clip0_1547_523)">
<rect width="93" height="67.9853" fill="white" fill-opacity="0.01"/>
<path opacity="0.9" d="M34.383 63.1711V63.0085C34.3759 62.8883 34.3868 62.7677 34.4155 62.6507V62.3905C34.4155 60.9066 33.8261 59.4835 32.7768 58.4342C31.7275 57.385 30.3044 56.7955 28.8206 56.7955C27.6905 56.8013 26.5893 57.1532 25.6653 57.8039C25.7042 57.4691 25.7259 57.1325 25.7303 56.7955C25.6069 54.9514 24.7873 53.223 23.4374 51.9605C22.0876 50.698 20.3084 49.9956 18.4601 49.9956C16.6119 49.9956 14.8327 50.698 13.4828 51.9605C12.133 53.223 11.3134 54.9514 11.1899 56.7955V56.8606L10.3442 56.7955C8.8603 56.7955 7.4372 57.385 6.38794 58.4342C5.33868 59.4835 4.74921 60.9066 4.74921 62.3905V62.6507C4.77441 62.7572 4.78535 62.8666 4.78174 62.976V63.1711C4.78603 63.8018 4.66552 64.4271 4.42713 65.011C4.18875 65.5949 3.83721 66.1259 3.39275 66.5734C2.9483 67.0209 2.41972 67.376 1.83744 67.6183C1.25516 67.8607 0.630694 67.9854 0 67.9854H39.1647C38.534 67.9854 37.9096 67.8607 37.3273 67.6183C36.745 67.376 36.2164 67.0209 35.772 66.5734C35.3275 66.1259 34.976 65.5949 34.7376 65.011C34.4992 64.4271 34.3787 63.8018 34.383 63.1711ZM23.0955 62.3905L23.2581 62.2603V62.3905H23.0955Z" fill="url(#paint0_linear_1547_523)"/>
<path d="M70.1973 26.9338H40.5309C34.7083 26.9338 36.3347 22.0544 30.5446 22.0544H19.7775C19.2397 22.063 18.7267 22.2827 18.3494 22.6661C17.9721 23.0495 17.7607 23.5658 17.7607 24.1038V67.79H72.2141V28.9506C72.2141 28.4157 72.0016 27.9027 71.6234 27.5245C71.2451 27.1463 70.7322 26.9338 70.1973 26.9338Z" fill="url(#paint1_linear_1547_523)"/>
<path d="M86.4943 15.4187H3.51318L17.7608 67.7902H64.3422L86.4943 15.4187Z" fill="url(#paint2_linear_1547_523)"/>
<path d="M22.1521 67.9528L7.67676 1.6915L19.3871 0L24.299 67.6275L22.1521 67.9528Z" fill="url(#paint3_linear_1547_523)"/>
<path d="M60.5361 63.9193L72.214 6.79858L81.7124 9.40089L62.3252 64.4072L60.5361 63.9193Z" fill="url(#paint4_linear_1547_523)"/>
<path opacity="0.9" d="M65.3505 31.0325H24.8521C24.6185 31.0325 24.4292 31.2218 24.4292 31.4553V42.0272C24.4292 42.2608 24.6185 42.4501 24.8521 42.4501H65.3505C65.584 42.4501 65.7734 42.2608 65.7734 42.0272V31.4553C65.7734 31.2218 65.584 31.0325 65.3505 31.0325Z" fill="#403294"/>
<path d="M62.7806 33.6672H33.3745V34.6431H62.7806V33.6672Z" fill="#8777D9"/>
<path d="M30.9998 33.6672H26.9988V34.6431H30.9998V33.6672Z" fill="#8777D9"/>
<path d="M62.7479 36.4321H45.4751V37.408H62.7479V36.4321Z" fill="#8777D9"/>
<path d="M43.5235 36.4321H33.3745V37.408H43.5235V36.4321Z" fill="#8777D9"/>
<path d="M30.9998 36.4321H26.9988V37.408H30.9998V36.4321Z" fill="#8777D9"/>
<path d="M46.8089 39.197H33.3745V40.1729H46.8089V39.197Z" fill="#8777D9"/>
<path d="M30.9998 39.197H26.9988V40.1729H30.9998V39.197Z" fill="#8777D9"/>
<path d="M82.9812 64.8299V64.6998C83.0073 64.6382 83.0184 64.5714 83.0137 64.5046V64.342C83.0137 63.4275 82.6504 62.5505 82.0038 61.9038C81.3571 61.2572 80.4801 60.8939 79.5656 60.8939C78.8615 60.8933 78.1723 61.0966 77.5814 61.4795C77.6191 61.2864 77.6409 61.0906 77.6464 60.8939C77.6995 60.2701 77.6224 59.6421 77.4201 59.0496C77.2178 58.4571 76.8946 57.9131 76.4711 57.452C76.0476 56.991 75.5329 56.6229 74.9597 56.3711C74.3865 56.1193 73.7672 55.9893 73.1412 55.9893C72.5151 55.9893 71.8959 56.1193 71.3227 56.3711C70.7495 56.6229 70.2348 56.991 69.8113 57.452C69.3877 57.9131 69.0646 58.4571 68.8623 59.0496C68.6599 59.6421 68.5829 60.2701 68.6359 60.8939H68.1155C67.6599 60.8896 67.2081 60.9756 66.786 61.147C66.3639 61.3184 65.9799 61.5717 65.6563 61.8923C65.3326 62.2129 65.0757 62.5944 64.9004 63.0149C64.7251 63.4354 64.6349 63.8864 64.6349 64.342V64.5046C64.661 64.5662 64.6721 64.6331 64.6674 64.6998V64.8299C64.6674 65.615 64.3555 66.3679 63.8004 66.923C63.2453 67.4782 62.4923 67.79 61.7073 67.79H85.9738C85.1857 67.7901 84.4294 67.4793 83.8691 66.9251C83.3088 66.3708 82.9897 65.618 82.9812 64.8299ZM76.02 64.342L76.085 64.2769V64.342H76.02Z" fill="#403294"/>
<path d="M72.2141 67.79H17.7607L32.171 35.4888C32.2772 35.2238 32.4618 34.9977 32.7002 34.8407C32.9386 34.6837 33.2193 34.6034 33.5047 34.6106H84.7702C85.0126 34.6119 85.2508 34.6733 85.4636 34.7895C85.6764 34.9056 85.8569 35.0727 85.9892 35.2759C86.1214 35.479 86.2011 35.7118 86.2211 35.9534C86.2411 36.195 86.2008 36.4377 86.1039 36.6599L72.2141 67.79Z" fill="url(#paint5_linear_1547_523)"/>
<path d="M93.0326 41.1165H26.999V42.0923H93.0326V41.1165Z" fill="#0065FF"/>
<path d="M89.129 45.1174H23.0955V46.0933H89.129V45.1174Z" fill="#0065FF"/>
<g opacity="0.8">
<g opacity="0.8">
<path opacity="0.9" d="M65.3505 3.09033H24.8521C24.6185 3.09033 24.4292 3.27966 24.4292 3.51321V14.0851C24.4292 14.3186 24.6185 14.508 24.8521 14.508H65.3505C65.584 14.508 65.7734 14.3186 65.7734 14.0851V3.51321C65.7734 3.27966 65.584 3.09033 65.3505 3.09033Z" fill="url(#paint6_linear_1547_523)"/>
<g opacity="0.8">
<path opacity="0.8" d="M62.7808 5.52979H33.3748V6.50565H62.7808V5.52979Z" fill="#6554C0"/>
<path opacity="0.8" d="M31.0001 5.52979H26.999V6.50565H31.0001V5.52979Z" fill="#6554C0"/>
<path opacity="0.8" d="M62.7808 8.29492H33.3748V9.27079H62.7808V8.29492Z" fill="#6554C0"/>
<path opacity="0.8" d="M31.0001 8.29492H26.999V9.27079H31.0001V8.29492Z" fill="#6554C0"/>
<path opacity="0.8" d="M46.8092 11.0598H33.3748V12.0357H46.8092V11.0598Z" fill="#6554C0"/>
<path opacity="0.8" d="M31.0001 11.0598H26.999V12.0357H31.0001V11.0598Z" fill="#6554C0"/>
<path opacity="0.48" d="M62.8131 14.9959C65.2744 14.9959 67.2696 13.0007 67.2696 10.5395C67.2696 8.07823 65.2744 6.08301 62.8131 6.08301C60.3519 6.08301 58.3567 8.07823 58.3567 10.5395C58.3567 13.0007 60.3519 14.9959 62.8131 14.9959Z" fill="#00A3BF"/>
</g>
</g>
</g>
<path d="M65.3505 16.9475H24.8521C24.6185 16.9475 24.4292 17.1368 24.4292 17.3704V27.9423C24.4292 28.1758 24.6185 28.3651 24.8521 28.3651H65.3505C65.584 28.3651 65.7734 28.1758 65.7734 27.9423V17.3704C65.7734 17.1368 65.584 16.9475 65.3505 16.9475Z" fill="url(#paint7_linear_1547_523)"/>
<path d="M62.7808 19.4194H33.3748V20.3953H62.7808V19.4194Z" fill="#FFC400"/>
<path d="M31.0001 19.4194H26.999V20.3953H31.0001V19.4194Z" fill="#FFC400"/>
<path d="M62.7482 22.1519H45.4753V23.1277H62.7482V22.1519Z" fill="#FFC400"/>
<path d="M43.5238 22.1519H33.3748V23.1277H43.5238V22.1519Z" fill="#FFC400"/>
<path d="M31.0001 22.1519H26.999V23.1277H31.0001V22.1519Z" fill="#FFC400"/>
<path d="M46.8092 24.917H33.3748V25.8929H46.8092V24.917Z" fill="#FFC400"/>
<path d="M31.0001 24.917H26.999V25.8929H31.0001V24.917Z" fill="#FFC400"/>
<path d="M28.2386 29.7863L25.9468 32.7839L26.722 33.3767L29.0139 30.3791L28.2386 29.7863Z" fill="#FFC400"/>
<path d="M31.4555 31.1627C33.9167 31.1627 35.9119 29.1674 35.9119 26.7062C35.9119 24.245 33.9167 22.2498 31.4555 22.2498C28.9942 22.2498 26.999 24.245 26.999 26.7062C26.999 29.1674 28.9942 31.1627 31.4555 31.1627Z" fill="#FFF0B2"/>
<path d="M31.4554 31.6179C30.2282 31.6174 29.0445 31.1635 28.1315 30.3435C27.2186 29.5234 26.6408 28.3949 26.5092 27.1749C26.3776 25.9548 26.7013 24.729 27.4183 23.7331C28.1353 22.7372 29.195 22.0413 30.3938 21.779C31.5927 21.5168 32.8461 21.7067 33.9135 22.3123C34.9808 22.9179 35.7868 23.8965 36.1766 25.0601C36.5664 26.2237 36.5125 27.4903 36.0254 28.6167C35.5382 29.743 34.6521 30.6497 33.5372 31.1625C32.8882 31.4745 32.1753 31.6304 31.4554 31.6179ZM31.4554 22.7375C30.8798 22.7394 30.3124 22.8729 29.7964 23.1279C29.092 23.4592 28.5016 23.992 28.1 24.6588C27.6984 25.3257 27.5035 26.0966 27.5401 26.8742C27.5766 27.6518 27.8429 28.4011 28.3053 29.0274C28.7676 29.6536 29.4053 30.1287 30.1377 30.3925C30.8701 30.6564 31.6642 30.6971 32.4198 30.5096C33.1753 30.3221 33.8583 29.9148 34.3823 29.3391C34.9063 28.7635 35.2479 28.0454 35.3638 27.2756C35.4798 26.5058 35.3648 25.719 35.0335 25.0145C34.8172 24.5484 34.5102 24.13 34.1304 23.7837C33.7506 23.4374 33.3057 23.1703 32.8216 22.9978C32.3845 22.8332 31.9223 22.7452 31.4554 22.7375Z" fill="#FFC400"/>
<path d="M68.3138 12.6792L67.5652 13.3052L69.9898 16.2049L70.7384 15.579L68.3138 12.6792Z" fill="#8777D9"/>
<path d="M65.2528 13.9547C67.7141 13.9547 69.7093 11.9594 69.7093 9.4982C69.7093 7.03697 67.7141 5.04175 65.2528 5.04175C62.7916 5.04175 60.7964 7.03697 60.7964 9.4982C60.7964 11.9594 62.7916 13.9547 65.2528 13.9547Z" fill="#E6FCFF"/>
<path d="M65.2203 14.4102C64.1016 14.406 63.0179 14.02 62.1484 13.3161C61.2789 12.6122 60.6757 11.6326 60.4386 10.5393C60.2951 9.90893 60.2783 9.25635 60.3892 8.61947C60.5001 7.98258 60.7364 7.37407 61.0844 6.8293C61.4325 6.28453 61.8853 5.81435 62.4166 5.44608C62.9479 5.07781 63.5471 4.81879 64.1794 4.68407C65.456 4.40265 66.792 4.63821 67.8954 5.33923C68.9987 6.04026 69.7796 7.14969 70.0671 8.42489C70.3301 9.70452 70.0827 11.0362 69.3778 12.1361C68.6729 13.236 67.5663 14.017 66.2938 14.3126C65.9396 14.3774 65.5804 14.41 65.2203 14.4102ZM65.2529 5.52982C64.9681 5.52826 64.6841 5.56103 64.4071 5.62741C63.8971 5.73527 63.4136 5.94338 62.9846 6.23966C62.5557 6.53593 62.1899 6.91446 61.9084 7.35327C61.627 7.79209 61.4355 8.28244 61.3451 8.79586C61.2547 9.30929 61.2673 9.83555 61.3819 10.3441C61.6156 11.36 62.2334 12.246 63.106 12.8163C63.9963 13.3764 65.0714 13.5634 66.0986 13.3367C67.1145 13.1031 68.0005 12.4853 68.5708 11.6127C68.9471 11.0152 69.1571 10.3281 69.1792 9.62234C69.2013 8.91658 69.0347 8.21769 68.6965 7.5978C68.3584 6.97791 67.861 6.45946 67.2557 6.09594C66.6503 5.73242 65.9589 5.53699 65.2529 5.52982Z" fill="#8777D9"/>
</g>
<defs>
<linearGradient id="paint0_linear_1547_523" x1="0" y1="58.7602" x2="39.1713" y2="58.7602" gradientUnits="userSpaceOnUse">
<stop stop-color="#79E2F2"/>
<stop offset="0.06" stop-color="#87E6F5"/>
<stop offset="0.18" stop-color="#9FEEFB"/>
<stop offset="0.29" stop-color="#AEF3FE"/>
<stop offset="0.38" stop-color="#B3F5FF"/>
</linearGradient>
<linearGradient id="paint1_linear_1547_523" x1="44.9906" y1="67.7998" x2="44.9906" y2="22.0642" gradientUnits="userSpaceOnUse">
<stop offset="0.48" stop-color="#4C9AFF"/>
<stop offset="0.65" stop-color="#4998FF"/>
<stop offset="0.75" stop-color="#4192FF"/>
<stop offset="0.84" stop-color="#3288FF"/>
<stop offset="0.92" stop-color="#1D79FF"/>
<stop offset="1" stop-color="#0065FF"/>
</linearGradient>
<linearGradient id="paint2_linear_1547_523" x1="44.9907" y1="67.7999" x2="44.9907" y2="15.4024" gradientUnits="userSpaceOnUse">
<stop stop-color="#E6FCFF"/>
<stop offset="0.47" stop-color="#B3F5FF" stop-opacity="0.9"/>
<stop offset="0.52" stop-color="#B3F5FF" stop-opacity="0.85"/>
<stop offset="0.61" stop-color="#B3F5FF" stop-opacity="0.72"/>
<stop offset="0.74" stop-color="#B3F5FF" stop-opacity="0.52"/>
<stop offset="0.89" stop-color="#B3F5FF" stop-opacity="0.23"/>
<stop offset="1" stop-color="#B3F5FF" stop-opacity="0"/>
</linearGradient>
<linearGradient id="paint3_linear_1547_523" x1="16.0009" y1="68.6456" x2="16.0009" y2="0" gradientUnits="userSpaceOnUse">
<stop stop-color="#79E2F2"/>
<stop offset="0.15" stop-color="#79E2F2" stop-opacity="0.8"/>
<stop offset="0.38" stop-color="#79E2F2" stop-opacity="0.52"/>
<stop offset="0.59" stop-color="#79E2F2" stop-opacity="0.29"/>
<stop offset="0.77" stop-color="#79E2F2" stop-opacity="0.13"/>
<stop offset="0.91" stop-color="#79E2F2" stop-opacity="0.04"/>
<stop offset="1" stop-color="#79E2F2" stop-opacity="0"/>
</linearGradient>
<linearGradient id="paint4_linear_1547_523" x1="55.0192" y1="62.0716" x2="79.777" y2="8.52262" gradientUnits="userSpaceOnUse">
<stop stop-color="#79E2F2"/>
<stop offset="0.12" stop-color="#79E2F2" stop-opacity="0.77"/>
<stop offset="0.24" stop-color="#79E2F2" stop-opacity="0.57"/>
<stop offset="0.36" stop-color="#79E2F2" stop-opacity="0.39"/>
<stop offset="0.48" stop-color="#79E2F2" stop-opacity="0.25"/>
<stop offset="0.6" stop-color="#79E2F2" stop-opacity="0.14"/>
<stop offset="0.73" stop-color="#79E2F2" stop-opacity="0.06"/>
<stop offset="0.86" stop-color="#79E2F2" stop-opacity="0.02"/>
<stop offset="1" stop-color="#79E2F2" stop-opacity="0"/>
</linearGradient>
<linearGradient id="paint5_linear_1547_523" x1="51.9941" y1="67.7997" x2="51.9941" y2="34.6106" gradientUnits="userSpaceOnUse">
<stop stop-color="#4C9AFF"/>
<stop offset="0.17" stop-color="#529DFF"/>
<stop offset="0.39" stop-color="#62A6FF"/>
<stop offset="0.63" stop-color="#7DB6FF"/>
<stop offset="0.9" stop-color="#A2CBFF"/>
<stop offset="1" stop-color="#B2D4FF"/>
</linearGradient>
<linearGradient id="paint6_linear_1547_523" x1="45.085" y1="14.4982" x2="45.085" y2="3.08057" gradientUnits="userSpaceOnUse">
<stop stop-color="#B3F5FF"/>
<stop offset="0.14" stop-color="#A2EFFB"/>
<stop offset="0.39" stop-color="#8BE8F6"/>
<stop offset="0.63" stop-color="#7EE4F3"/>
<stop offset="0.83" stop-color="#79E2F2"/>
</linearGradient>
<linearGradient id="paint7_linear_1547_523" x1="24.4129" y1="22.6563" x2="65.7604" y2="22.6563" gradientUnits="userSpaceOnUse">
<stop offset="0.17" stop-color="#FFE380"/>
<stop offset="0.32" stop-color="#FFE485"/>
<stop offset="0.49" stop-color="#FFE792"/>
<stop offset="0.67" stop-color="#FFECA9"/>
<stop offset="0.86" stop-color="#FFF4C9"/>
<stop offset="1" stop-color="#FFFAE5"/>
</linearGradient>
<clipPath id="clip0_1547_523">
<rect width="93" height="67.9853" fill="white"/>
</clipPath>
</defs>
</svg>
