<svg width="300" height="159" viewBox="0 0 300 159" fill="none" xmlns="http://www.w3.org/2000/svg">
<rect width="300" height="159" fill="#EAE6FF"/>
<path d="M167.316 75.3256C169.789 73.9971 172.619 73.2409 175.634 73.2409H175.644C175.951 73.2409 176.094 72.873 175.869 72.6686C172.734 69.8551 169.153 67.5827 165.272 65.9445C165.231 65.9241 165.19 65.9139 165.149 65.8934C171.495 61.2847 175.624 53.7942 175.624 45.3431C175.624 31.3431 164.301 20 150.332 20C136.362 20 125.05 31.3431 125.05 45.3431C125.05 53.7942 129.178 61.2847 135.535 65.8934C135.494 65.9139 135.453 65.9241 135.412 65.9445C130.844 67.8759 126.746 70.6453 123.221 74.181C119.716 77.6798 116.925 81.8275 115.005 86.3927C113.115 90.8631 112.096 95.6528 112 100.505C111.998 100.614 112.017 100.723 112.057 100.824C112.096 100.926 112.156 101.018 112.232 101.096C112.309 101.175 112.4 101.237 112.5 101.279C112.601 101.321 112.709 101.343 112.818 101.343H118.939C119.378 101.343 119.746 100.985 119.756 100.546C119.961 92.6569 123.119 85.2686 128.708 79.6686C134.482 73.8745 142.167 70.6861 150.342 70.6861C156.136 70.6861 161.695 72.2905 166.488 75.2949C166.611 75.3722 166.752 75.4158 166.898 75.4212C167.043 75.4266 167.187 75.3936 167.316 75.3256ZM150.342 62.9197C145.662 62.9197 141.257 61.0905 137.936 57.7693C136.302 56.1395 135.007 54.2025 134.124 52.0698C133.242 49.9371 132.791 47.651 132.796 45.3431C132.796 40.6526 134.625 36.238 137.936 32.9168C141.247 29.5956 145.651 27.7664 150.342 27.7664C155.032 27.7664 159.427 29.5956 162.748 32.9168C164.382 34.5466 165.677 36.4837 166.559 38.6163C167.442 40.749 167.893 43.0351 167.888 45.3431C167.888 50.0336 166.059 54.4482 162.748 57.7693C159.427 61.0905 155.022 62.9197 150.342 62.9197ZM187.927 87.2409H179.343V78.6569C179.343 78.2073 178.975 77.8394 178.526 77.8394H172.803C172.354 77.8394 171.986 78.2073 171.986 78.6569V87.2409H163.402C162.952 87.2409 162.584 87.6088 162.584 88.0584V93.781C162.584 94.2307 162.952 94.5985 163.402 94.5985H171.986V103.182C171.986 103.632 172.354 104 172.803 104H178.526C178.975 104 179.343 103.632 179.343 103.182V94.5985H187.927C188.377 94.5985 188.745 94.2307 188.745 93.781V88.0584C188.745 87.6088 188.377 87.2409 187.927 87.2409Z" fill="#8777D9"/>
<path d="M98.3281 122.625V130.359C98.3229 131.432 97.9844 132.31 97.3125 132.992C96.6458 133.674 95.7396 134.057 94.5938 134.141L94.1953 134.156C92.9505 134.156 91.9583 133.82 91.2188 133.148C90.4792 132.477 90.1042 131.552 90.0938 130.375V122.625H91.5781V130.328C91.5781 131.151 91.8047 131.792 92.2578 132.25C92.7109 132.703 93.3568 132.93 94.1953 132.93C95.0443 132.93 95.6927 132.703 96.1406 132.25C96.5938 131.797 96.8203 131.159 96.8203 130.336V122.625H98.3281ZM107.759 129.867C107.759 131.154 107.465 132.19 106.877 132.977C106.288 133.763 105.491 134.156 104.486 134.156C103.46 134.156 102.653 133.831 102.064 133.18V137.25H100.619V125.547H101.939L102.009 126.484C102.598 125.755 103.416 125.391 104.462 125.391C105.478 125.391 106.28 125.773 106.869 126.539C107.462 127.305 107.759 128.37 107.759 129.734V129.867ZM106.314 129.703C106.314 128.75 106.111 127.997 105.705 127.445C105.298 126.893 104.741 126.617 104.033 126.617C103.158 126.617 102.502 127.005 102.064 127.781V131.82C102.496 132.591 103.158 132.977 104.048 132.977C104.741 132.977 105.291 132.703 105.697 132.156C106.108 131.604 106.314 130.786 106.314 129.703ZM111.323 134H109.878V122H111.323V134ZM113.411 129.695C113.411 128.867 113.572 128.122 113.895 127.461C114.223 126.799 114.677 126.289 115.255 125.93C115.838 125.57 116.502 125.391 117.247 125.391C118.398 125.391 119.328 125.789 120.036 126.586C120.749 127.383 121.106 128.443 121.106 129.766V129.867C121.106 130.69 120.947 131.43 120.63 132.086C120.317 132.737 119.867 133.245 119.278 133.609C118.695 133.974 118.023 134.156 117.263 134.156C116.117 134.156 115.187 133.758 114.473 132.961C113.765 132.164 113.411 131.109 113.411 129.797V129.695ZM114.864 129.867C114.864 130.805 115.08 131.557 115.513 132.125C115.95 132.693 116.533 132.977 117.263 132.977C117.997 132.977 118.58 132.69 119.013 132.117C119.445 131.539 119.661 130.732 119.661 129.695C119.661 128.768 119.44 128.018 118.997 127.445C118.559 126.867 117.976 126.578 117.247 126.578C116.533 126.578 115.958 126.862 115.52 127.43C115.083 127.997 114.864 128.81 114.864 129.867ZM128.287 134C128.204 133.833 128.136 133.536 128.084 133.109C127.412 133.807 126.61 134.156 125.678 134.156C124.845 134.156 124.16 133.922 123.623 133.453C123.092 132.979 122.827 132.38 122.827 131.656C122.827 130.776 123.16 130.094 123.827 129.609C124.498 129.12 125.441 128.875 126.655 128.875H128.061V128.211C128.061 127.706 127.91 127.305 127.608 127.008C127.306 126.706 126.86 126.555 126.272 126.555C125.756 126.555 125.324 126.685 124.975 126.945C124.626 127.206 124.452 127.521 124.452 127.891H122.998C122.998 127.469 123.147 127.062 123.444 126.672C123.746 126.276 124.152 125.964 124.662 125.734C125.178 125.505 125.743 125.391 126.358 125.391C127.332 125.391 128.095 125.635 128.647 126.125C129.199 126.609 129.485 127.279 129.506 128.133V132.023C129.506 132.799 129.605 133.417 129.803 133.875V134H128.287ZM125.889 132.898C126.342 132.898 126.772 132.781 127.178 132.547C127.584 132.312 127.879 132.008 128.061 131.633V129.898H126.928C125.157 129.898 124.272 130.417 124.272 131.453C124.272 131.906 124.423 132.26 124.725 132.516C125.027 132.771 125.415 132.898 125.889 132.898ZM131.57 129.703C131.57 128.406 131.878 127.365 132.492 126.578C133.107 125.786 133.911 125.391 134.906 125.391C135.896 125.391 136.68 125.729 137.258 126.406V122H138.703V134H137.375L137.305 133.094C136.727 133.802 135.922 134.156 134.891 134.156C133.911 134.156 133.112 133.755 132.492 132.953C131.878 132.151 131.57 131.104 131.57 129.812V129.703ZM133.016 129.867C133.016 130.826 133.214 131.576 133.609 132.117C134.005 132.659 134.552 132.93 135.25 132.93C136.167 132.93 136.836 132.518 137.258 131.695V127.812C136.826 127.016 136.161 126.617 135.266 126.617C134.557 126.617 134.005 126.891 133.609 127.438C133.214 127.984 133.016 128.794 133.016 129.867ZM146.948 129.547V134H145.448V122.625H149.644C150.889 122.625 151.862 122.943 152.566 123.578C153.274 124.214 153.628 125.055 153.628 126.102C153.628 127.206 153.282 128.057 152.589 128.656C151.902 129.25 150.915 129.547 149.628 129.547H146.948ZM146.948 128.32H149.644C150.446 128.32 151.06 128.133 151.487 127.758C151.915 127.378 152.128 126.831 152.128 126.117C152.128 125.44 151.915 124.898 151.487 124.492C151.06 124.086 150.474 123.875 149.73 123.859H146.948V128.32ZM160.591 134C160.507 133.833 160.44 133.536 160.387 133.109C159.716 133.807 158.914 134.156 157.981 134.156C157.148 134.156 156.463 133.922 155.927 133.453C155.395 132.979 155.13 132.38 155.13 131.656C155.13 130.776 155.463 130.094 156.13 129.609C156.802 129.12 157.744 128.875 158.958 128.875H160.364V128.211C160.364 127.706 160.213 127.305 159.911 127.008C159.609 126.706 159.164 126.555 158.575 126.555C158.059 126.555 157.627 126.685 157.278 126.945C156.929 127.206 156.755 127.521 156.755 127.891H155.302C155.302 127.469 155.45 127.062 155.747 126.672C156.049 126.276 156.455 125.964 156.966 125.734C157.481 125.505 158.046 125.391 158.661 125.391C159.635 125.391 160.398 125.635 160.95 126.125C161.502 126.609 161.789 127.279 161.809 128.133V132.023C161.809 132.799 161.908 133.417 162.106 133.875V134H160.591ZM158.192 132.898C158.645 132.898 159.075 132.781 159.481 132.547C159.887 132.312 160.182 132.008 160.364 131.633V129.898H159.231C157.46 129.898 156.575 130.417 156.575 131.453C156.575 131.906 156.726 132.26 157.028 132.516C157.33 132.771 157.718 132.898 158.192 132.898ZM169.147 131.758C169.147 131.367 168.998 131.065 168.702 130.852C168.41 130.633 167.897 130.445 167.162 130.289C166.433 130.133 165.853 129.945 165.42 129.727C164.993 129.508 164.676 129.247 164.467 128.945C164.264 128.643 164.162 128.284 164.162 127.867C164.162 127.174 164.454 126.589 165.037 126.109C165.626 125.63 166.376 125.391 167.287 125.391C168.246 125.391 169.022 125.638 169.616 126.133C170.215 126.628 170.514 127.26 170.514 128.031H169.061C169.061 127.635 168.892 127.294 168.553 127.008C168.22 126.721 167.798 126.578 167.287 126.578C166.761 126.578 166.35 126.693 166.053 126.922C165.756 127.151 165.608 127.451 165.608 127.82C165.608 128.169 165.746 128.432 166.022 128.609C166.298 128.786 166.795 128.956 167.514 129.117C168.238 129.279 168.824 129.471 169.272 129.695C169.72 129.919 170.051 130.19 170.264 130.508C170.483 130.82 170.592 131.203 170.592 131.656C170.592 132.411 170.29 133.018 169.686 133.477C169.082 133.93 168.298 134.156 167.334 134.156C166.657 134.156 166.058 134.036 165.537 133.797C165.017 133.557 164.608 133.224 164.311 132.797C164.019 132.365 163.873 131.898 163.873 131.398H165.319C165.345 131.883 165.537 132.268 165.897 132.555C166.261 132.836 166.741 132.977 167.334 132.977C167.881 132.977 168.319 132.867 168.647 132.648C168.98 132.424 169.147 132.128 169.147 131.758ZM177.547 131.758C177.547 131.367 177.398 131.065 177.102 130.852C176.81 130.633 176.297 130.445 175.562 130.289C174.833 130.133 174.253 129.945 173.82 129.727C173.393 129.508 173.076 129.247 172.867 128.945C172.664 128.643 172.562 128.284 172.562 127.867C172.562 127.174 172.854 126.589 173.438 126.109C174.026 125.63 174.776 125.391 175.688 125.391C176.646 125.391 177.422 125.638 178.016 126.133C178.615 126.628 178.914 127.26 178.914 128.031H177.461C177.461 127.635 177.292 127.294 176.953 127.008C176.62 126.721 176.198 126.578 175.688 126.578C175.161 126.578 174.75 126.693 174.453 126.922C174.156 127.151 174.008 127.451 174.008 127.82C174.008 128.169 174.146 128.432 174.422 128.609C174.698 128.786 175.195 128.956 175.914 129.117C176.638 129.279 177.224 129.471 177.672 129.695C178.12 129.919 178.451 130.19 178.664 130.508C178.883 130.82 178.992 131.203 178.992 131.656C178.992 132.411 178.69 133.018 178.086 133.477C177.482 133.93 176.698 134.156 175.734 134.156C175.057 134.156 174.458 134.036 173.938 133.797C173.417 133.557 173.008 133.224 172.711 132.797C172.419 132.365 172.273 131.898 172.273 131.398H173.719C173.745 131.883 173.938 132.268 174.297 132.555C174.661 132.836 175.141 132.977 175.734 132.977C176.281 132.977 176.719 132.867 177.047 132.648C177.38 132.424 177.547 132.128 177.547 131.758ZM188.166 129.867C188.166 131.154 187.871 132.19 187.283 132.977C186.694 133.763 185.897 134.156 184.892 134.156C183.866 134.156 183.059 133.831 182.47 133.18V137.25H181.025V125.547H182.345L182.416 126.484C183.004 125.755 183.822 125.391 184.869 125.391C185.884 125.391 186.686 125.773 187.275 126.539C187.869 127.305 188.166 128.37 188.166 129.734V129.867ZM186.72 129.703C186.72 128.75 186.517 127.997 186.111 127.445C185.705 126.893 185.147 126.617 184.439 126.617C183.564 126.617 182.908 127.005 182.47 127.781V131.82C182.903 132.591 183.564 132.977 184.455 132.977C185.147 132.977 185.697 132.703 186.103 132.156C186.515 131.604 186.72 130.786 186.72 129.703ZM189.777 129.695C189.777 128.867 189.938 128.122 190.261 127.461C190.589 126.799 191.042 126.289 191.62 125.93C192.204 125.57 192.868 125.391 193.613 125.391C194.764 125.391 195.693 125.789 196.402 126.586C197.115 127.383 197.472 128.443 197.472 129.766V129.867C197.472 130.69 197.313 131.43 196.995 132.086C196.683 132.737 196.232 133.245 195.644 133.609C195.06 133.974 194.389 134.156 193.628 134.156C192.482 134.156 191.553 133.758 190.839 132.961C190.131 132.164 189.777 131.109 189.777 129.797V129.695ZM191.23 129.867C191.23 130.805 191.446 131.557 191.878 132.125C192.316 132.693 192.899 132.977 193.628 132.977C194.363 132.977 194.946 132.69 195.378 132.117C195.81 131.539 196.027 130.732 196.027 129.695C196.027 128.768 195.805 128.018 195.363 127.445C194.925 126.867 194.342 126.578 193.613 126.578C192.899 126.578 192.323 126.862 191.886 127.43C191.448 127.997 191.23 128.81 191.23 129.867ZM203.52 126.844C203.302 126.807 203.065 126.789 202.809 126.789C201.861 126.789 201.218 127.193 200.88 128V134H199.434V125.547H200.841L200.864 126.523C201.338 125.768 202.01 125.391 202.88 125.391C203.161 125.391 203.374 125.427 203.52 125.5V126.844ZM207.358 123.5V125.547H208.936V126.664H207.358V131.906C207.358 132.245 207.428 132.5 207.569 132.672C207.709 132.839 207.949 132.922 208.287 132.922C208.454 132.922 208.683 132.891 208.975 132.828V134C208.595 134.104 208.225 134.156 207.866 134.156C207.22 134.156 206.733 133.961 206.405 133.57C206.077 133.18 205.912 132.625 205.912 131.906V126.664H204.373V125.547H205.912V123.5H207.358Z" fill="#403294"/>
</svg>
