<svg width="81" height="80" viewBox="0 0 81 80" fill="none" xmlns="http://www.w3.org/2000/svg">
<circle cx="40.9141" cy="40" r="40" fill="#DEEBFF"/>
<rect width="32" height="32" transform="translate(25.043 24)" fill="white" fill-opacity="0.01"/>
<path fill-rule="evenodd" clip-rule="evenodd" d="M35.8777 37.3333H30.3763C28.8923 37.3333 27.7097 38.5267 27.7097 40V44.9733C27.7097 46.72 30.2083 47.7107 33.043 47.9467V43.9947C33.0451 42.935 33.4674 41.9193 34.2172 41.1705C34.9671 40.4216 35.9833 40.0007 37.043 40H37.515C36.7149 39.2948 36.1445 38.366 35.8777 37.3333ZM46.2083 37.3333H51.7097C53.183 37.3333 54.3763 38.5133 54.3763 40V44.9733C54.3763 46.72 51.8777 47.7107 49.043 47.9467V43.9947C49.0416 42.9347 48.6195 41.9187 47.8695 41.1697C47.1195 40.4207 46.1029 40 45.043 40H44.571C45.3711 39.2948 45.9415 38.366 46.2083 37.3333ZM38.3323 31.4053C38.2096 30.5907 37.8384 29.8339 37.2694 29.2382C36.7004 28.6425 35.9613 28.237 35.1532 28.0772C34.3451 27.9173 33.5073 28.0108 32.7543 28.345C32.0014 28.6792 31.3699 29.2377 30.9463 29.9442C30.5227 30.6507 30.3276 31.4708 30.3876 32.2924C30.4476 33.114 30.7598 33.8971 31.2815 34.5346C31.8033 35.1721 32.5091 35.6329 33.3027 35.8542C34.0962 36.0754 34.9387 36.0462 35.715 35.7707C35.7528 34.8825 36.012 34.018 36.4692 33.2555C36.9263 32.4931 37.5667 31.8571 38.3323 31.4053ZM46.3723 35.7707C47.1486 36.0461 47.9909 36.0752 48.7843 35.854C49.5777 35.6328 50.2835 35.172 50.8052 34.5347C51.3269 33.8973 51.6392 33.1145 51.6993 32.293C51.7594 31.4715 51.5645 30.6515 51.1412 29.945C50.7178 29.2385 50.0867 28.6799 49.3339 28.3455C48.5812 28.0111 47.7436 27.9172 46.9355 28.0767C46.1274 28.2361 45.3883 28.6412 44.819 29.2365C44.2498 29.8318 43.8782 30.5883 43.755 31.4027C44.5213 31.8542 45.1624 32.4906 45.6196 33.2536C46.0768 34.0166 46.3356 34.8819 46.3723 35.7707Z" fill="#0052CC"/>
<path fill-rule="evenodd" clip-rule="evenodd" d="M34.3763 44C34.3763 42.5267 35.559 41.3333 37.043 41.3333H45.043C46.5163 41.3333 47.7097 42.5133 47.7097 44V48.9733C47.7097 53.0093 34.3763 53.0093 34.3763 48.9733V44Z" fill="#0052CC"/>
<path d="M41.043 40C43.2521 40 45.043 38.2092 45.043 36C45.043 33.7909 43.2521 32 41.043 32C38.8339 32 37.043 33.7909 37.043 36C37.043 38.2092 38.8339 40 41.043 40Z" fill="#0052CC"/>
</svg>
