<svg width="81" height="80" viewBox="0 0 81 80" fill="none" xmlns="http://www.w3.org/2000/svg">
<circle cx="40.9141" cy="40" r="40" fill="#E6FCFF"/>
<rect width="32" height="32" transform="translate(25.043 24)" fill="white" fill-opacity="0.01"/>
<path fill-rule="evenodd" clip-rule="evenodd" d="M54.3763 40C54.3763 47.3638 48.4067 53.3333 41.0429 53.3333C33.6791 53.3333 27.7096 47.3638 27.7096 40C27.7096 32.6362 33.6791 26.6666 41.0429 26.6666C48.4067 26.6666 54.3763 32.6362 54.3763 40ZM45.0429 36C45.0429 38.2091 43.2521 40 41.0429 40C38.8338 40 37.0429 38.2091 37.0429 36C37.0429 33.7908 38.8338 32 41.0429 32C43.2521 32 45.0429 33.7908 45.0429 36ZM41.0429 50.6666C38.6188 50.6703 36.2663 49.8446 34.3763 48.3266V44C34.3763 42.5266 35.5589 41.3333 37.0429 41.3333H45.0429C46.5163 41.3333 47.7096 42.5133 47.7096 44V48.3266C45.8829 49.7906 43.5656 50.6666 41.0429 50.6666Z" fill="#00A3BF"/>
</svg>
