<svg width="81" height="80" viewBox="0 0 81 80" fill="none" xmlns="http://www.w3.org/2000/svg">
<circle cx="40.9141" cy="40" r="40" fill="#FFFAE6"/>
<rect width="32" height="32" transform="translate(25.043 24)" fill="white" fill-opacity="0.01"/>
<path fill-rule="evenodd" clip-rule="evenodd" d="M44.3763 41.3453H37.7096C35.8696 41.3453 34.3763 42.8386 34.3763 44.6826V49.9866C36.3476 51.3098 38.6687 52.015 41.0429 52.012C43.4171 52.0151 45.7383 51.3099 47.7096 49.9866V44.6826C47.7099 43.7981 47.359 42.9496 46.7339 42.3238C46.1088 41.698 45.2608 41.346 44.3763 41.3453Z" fill="#FF8B00"/>
<path d="M41.0429 40C43.2521 40 45.0429 38.2091 45.0429 36C45.0429 33.7908 43.2521 32 41.0429 32C38.8338 32 37.0429 33.7908 37.0429 36C37.0429 38.2091 38.8338 40 41.0429 40Z" fill="#FF8B00"/>
<path d="M41.0429 50.6666C43.8719 50.6666 46.585 49.5428 48.5854 47.5424C50.5858 45.542 51.7096 42.8289 51.7096 40C51.7096 37.171 50.5858 34.4579 48.5854 32.4575C46.585 30.4571 43.8719 29.3333 41.0429 29.3333C38.214 29.3333 35.5008 30.4571 33.5005 32.4575C31.5001 34.4579 30.3763 37.171 30.3763 40C30.3763 42.8289 31.5001 45.542 33.5005 47.5424C35.5008 49.5428 38.214 50.6666 41.0429 50.6666ZM41.0429 53.3333C33.6789 53.3333 27.7096 47.364 27.7096 40C27.7096 32.636 33.6789 26.6666 41.0429 26.6666C48.4069 26.6666 54.3763 32.636 54.3763 40C54.3763 47.364 48.4069 53.3333 41.0429 53.3333Z" fill="#FF8B00"/>
</svg>
