<svg width="41" height="41" viewBox="0 0 41 41" fill="none" xmlns="http://www.w3.org/2000/svg">
<path d="M20.5 12.5L31.1667 17.8333V39.1667H9.83333V17.8333L20.5 12.5ZM20.5 12.5V0.5V12.5ZM0.5 39.1667H40.5H0.5ZM4.5 39.1667V23.1667H9.83333L4.5 39.1667ZM36.5 39.1667V23.1667H31.1667L36.5 39.1667ZM17.8333 39.1667V31.1667H23.1667V39.1667H17.8333ZM20.5 1.83333H28.5V7.16667H20.5V1.83333ZM20.5 25.8333C19.7928 25.8333 19.1145 25.5524 18.6144 25.0523C18.1143 24.5522 17.8333 23.8739 17.8333 23.1667C17.8333 22.4594 18.1143 21.7811 18.6144 21.281C19.1145 20.781 19.7928 20.5 20.5 20.5C21.2072 20.5 21.8855 20.781 22.3856 21.281C22.8857 21.7811 23.1667 22.4594 23.1667 23.1667C23.1667 23.8739 22.8857 24.5522 22.3856 25.0523C21.8855 25.5524 21.2072 25.8333 20.5 25.8333Z" stroke="#403294" stroke-width="2.76667"/>
</svg>
