<svg width="61" height="26" viewBox="0 0 61 26" fill="none" xmlns="http://www.w3.org/2000/svg">
<rect width="61" height="26" rx="3" fill="#E3FCEF"/>
<path d="M9.44531 18H11.209V8.13574H9.45215L6.875 9.94727V11.6084L9.3291 9.87207H9.44531V18ZM13.9502 18H20.7998V16.5371H16.3359V16.3936L18.3115 14.4795C20.1094 12.75 20.6494 11.8613 20.6494 10.7402V10.7197C20.6494 9.05859 19.2686 7.88965 17.3477 7.88965C15.29 7.88965 13.8545 9.1748 13.8545 11.0137L13.8613 11.0342L15.502 11.041L15.5088 11.0137C15.5088 9.99512 16.2129 9.30469 17.2588 9.30469C18.2842 9.30469 18.9062 9.96094 18.9062 10.8701V10.8906C18.9062 11.6494 18.5303 12.1484 17.1904 13.502L13.9502 16.8105V18ZM24.833 13.4609C26.207 13.4609 27.0479 12.415 27.0479 10.7334V10.7266C27.0479 9.04492 26.207 7.99902 24.833 7.99902C23.4521 7.99902 22.6182 9.04492 22.6182 10.7266V10.7334C22.6182 12.415 23.4521 13.4609 24.833 13.4609ZM26.0635 18L32.7285 8.13574H31.3203L24.6553 18H26.0635ZM24.833 12.4697C24.2041 12.4697 23.8555 11.834 23.8555 10.7334V10.7266C23.8555 9.61914 24.2041 8.99023 24.833 8.99023C25.4551 8.99023 25.8174 9.61914 25.8174 10.7266V10.7334C25.8174 11.834 25.4551 12.4697 24.833 12.4697ZM32.5508 18.1367C33.9248 18.1367 34.7656 17.084 34.7656 15.4023V15.3955C34.7656 13.7139 33.9248 12.6748 32.5508 12.6748C31.1699 12.6748 30.3291 13.7139 30.3291 15.3955V15.4023C30.3291 17.084 31.1699 18.1367 32.5508 18.1367ZM32.5508 17.1455C31.9219 17.1455 31.5664 16.5098 31.5664 15.4023V15.3955C31.5664 14.2949 31.9219 13.666 32.5508 13.666C33.1729 13.666 33.5352 14.2949 33.5352 15.3955V15.4023C33.5352 16.5098 33.1729 17.1455 32.5508 17.1455Z" fill="#006644"/>
<path d="M47.1015 10.6297C47.09 10.6137 47.0749 10.6007 47.0574 10.5917C47.0398 10.5828 47.0204 10.5781 47.0008 10.5781C46.9811 10.5781 46.9617 10.5828 46.9441 10.5917C46.9266 10.6007 46.9115 10.6137 46.9 10.6297L44.1187 14.4734C44.0594 14.5562 44.1187 14.6719 44.2203 14.6719H44.9531C45.1125 14.6719 45.264 14.5953 45.3578 14.4656L47 12.1937L48.6437 14.4656C48.7375 14.5953 48.8875 14.6719 49.0484 14.6719H49.7812C49.8828 14.6719 49.9422 14.5562 49.8828 14.4734L47.1015 10.6297Z" fill="#006644"/>
<path d="M47 6C43.1344 6 40 9.13438 40 13C40 16.8656 43.1344 20 47 20C50.8656 20 54 16.8656 54 13C54 9.13438 50.8656 6 47 6ZM47 18.8125C43.7906 18.8125 41.1875 16.2094 41.1875 13C41.1875 9.79063 43.7906 7.1875 47 7.1875C50.2094 7.1875 52.8125 9.79063 52.8125 13C52.8125 16.2094 50.2094 18.8125 47 18.8125Z" fill="#006644"/>
</svg>
