<svg width="60" height="60" viewBox="0 0 60 60" fill="none" xmlns="http://www.w3.org/2000/svg">
<circle cx="30" cy="30" r="30" fill="#FFEBE6"/>
<rect width="24" height="24" transform="translate(18 18)" fill="white" fill-opacity="0.01"/>
<path d="M34 30C35.6569 30 37 28.6569 37 27C37 25.3431 35.6569 24 34 24C32.3431 24 31 25.3431 31 27C31 28.6569 32.3431 30 34 30Z" fill="#BF2600"/>
<path d="M26 27C27.6569 27 29 25.6569 29 24C29 22.3431 27.6569 21 26 21C24.3431 21 23 22.3431 23 24C23 25.6569 24.3431 27 26 27Z" fill="#BF2600"/>
<path fill-rule="evenodd" clip-rule="evenodd" d="M29 33C29 31.895 29.887 31 31 31H37C38.105 31 39 31.885 39 33V36.73C39 39.757 29 39.757 29 36.73V33Z" fill="#BF2600"/>
<path fill-rule="evenodd" clip-rule="evenodd" d="M31 30C31.0004 29.7372 30.9489 29.477 30.8486 29.2342C30.7482 28.9913 30.6009 28.7707 30.4151 28.5849C30.2293 28.3991 30.0087 28.2518 29.7658 28.1514C29.523 28.0511 29.2628 27.9996 29 28H23C21.887 28 21 28.897 21 30.003V33.829C21 35.75 25.054 36.347 28 35.813V33.006C27.9993 32.6118 28.0763 32.2214 28.2266 31.857C28.3769 31.4925 28.5975 31.1613 28.8758 30.8822C29.1541 30.603 29.4847 30.3814 29.8486 30.2301C30.2126 30.0787 30.6028 30.0005 30.997 30H31Z" fill="#BF2600"/>
</svg>
