<svg width="60" height="60" viewBox="0 0 60 60" fill="none" xmlns="http://www.w3.org/2000/svg">
<circle cx="30" cy="30" r="30" fill="#EAE6FF"/>
<g clip-path="url(#clip0_3417_4393)">
<path d="M25.2692 18C25.0299 18.0318 24.8125 18.156 24.6637 18.3462L21.5188 22.2979L19.4419 20.9132C19.3396 20.8445 19.2247 20.7967 19.1039 20.7725C18.983 20.7483 18.8586 20.7482 18.7378 20.7722C18.6169 20.7962 18.5019 20.8438 18.3995 20.9123C18.2971 20.9809 18.2092 21.0689 18.1409 21.1715C18.0726 21.2741 18.0253 21.3891 18.0015 21.51C17.9778 21.631 17.9782 21.7554 18.0027 21.8761C18.0271 21.9969 18.0752 22.1117 18.1441 22.2138C18.2131 22.316 18.3015 22.4035 18.4043 22.4714L21.1735 24.3175C21.3676 24.4468 21.6034 24.4978 21.8336 24.4603C22.0637 24.4228 22.2711 24.2996 22.4142 24.1154L26.1065 19.5C26.224 19.3567 26.2956 19.1813 26.312 18.9967C26.3285 18.8121 26.289 18.6268 26.1986 18.4649C26.1083 18.3031 25.9713 18.1722 25.8056 18.0893C25.6398 18.0063 25.4529 17.9752 25.2692 18ZM29.0769 20.7692V22.6154H42V20.7692H29.0769ZM25.2692 26.3077C25.0299 26.3395 24.8125 26.4637 24.6637 26.6539L21.5188 30.6055L19.4419 29.2209C19.2352 29.0832 18.9824 29.0332 18.7389 29.082C18.4954 29.1307 18.2813 29.2742 18.1435 29.4808C18.0058 29.6874 17.9558 29.9403 18.0046 30.1838C18.0533 30.4272 18.1968 30.6414 18.4034 30.7791L21.1726 32.6252C21.3667 32.7545 21.6025 32.8055 21.8327 32.768C22.0628 32.7305 22.2702 32.6072 22.4132 32.4231L26.1055 27.8077C26.223 27.6644 26.2945 27.4891 26.311 27.3046C26.3274 27.1201 26.288 26.9349 26.1978 26.7731C26.1076 26.6113 25.9708 26.4804 25.8052 26.3974C25.6396 26.3144 25.4528 26.2832 25.2692 26.3077ZM29.0769 29.0769V30.9231H42V29.0769H29.0769ZM25.2692 34.6154C25.0299 34.6471 24.8125 34.7714 24.6637 34.9615L21.5188 38.9132L19.4419 37.5286C19.3395 37.4604 19.2248 37.4131 19.1042 37.3892C18.9836 37.3654 18.8594 37.3655 18.7389 37.3897C18.4954 37.4384 18.2813 37.5819 18.1435 37.7885C18.0058 37.9951 17.9558 38.248 18.0046 38.4914C18.0533 38.7349 18.1968 38.9491 18.4034 39.0868L21.1726 40.9329C21.3667 41.0622 21.6025 41.1131 21.8327 41.0756C22.0628 41.0381 22.2702 40.9149 22.4132 40.7308L26.1055 36.1154C26.223 35.9721 26.2945 35.7968 26.311 35.6123C26.3274 35.4278 26.288 35.2426 26.1978 35.0808C26.1076 34.919 25.9708 34.7881 25.8052 34.7051C25.6396 34.6221 25.4528 34.5908 25.2692 34.6154ZM29.0769 37.3846V39.2308H42V37.3846H29.0769Z" fill="#403294"/>
</g>
<defs>
<clipPath id="clip0_3417_4393">
<rect width="24" height="24" fill="white" transform="translate(18 18)"/>
</clipPath>
</defs>
</svg>
