<svg width="60" height="60" viewBox="0 0 60 60" fill="none" xmlns="http://www.w3.org/2000/svg">
<circle cx="30" cy="30" r="30" fill="#E3FCEF"/>
<rect width="24" height="24" transform="translate(18 18)" fill="white" fill-opacity="0.01"/>
<path d="M21.507 33H34.5C34.493 33 34.493 23 34.493 23H21.5C21.507 23 21.507 33 21.507 33ZM19.5 22.994C19.5 21.893 20.263 21 21.192 21H34.808C35.742 21 36.5 21.895 36.5 22.994V33.006C36.5 34.107 35.737 35 34.808 35H21.192C20.258 35 19.5 34.105 19.5 33.006V22.994ZM24.5 23V33H26.5V23H24.5ZM29.5 23V33H31.5V23H29.5Z" fill="#006644"/>
<path d="M38.5 23H38.506C39.607 23 40.5 23.895 40.5 24.994V37.006C40.4997 37.5348 40.2896 38.0418 39.9157 38.4157C39.5418 38.7896 39.0348 38.9997 38.506 39H26.494C25.9652 38.9997 25.4582 38.7896 25.0843 38.4157C24.7104 38.0418 24.5003 37.5348 24.5 37.006V37H37.5C38.055 37 38.5 36.552 38.5 36V23Z" fill="#006644"/>
</svg>
