<svg width="60" height="60" viewBox="0 0 60 60" fill="none" xmlns="http://www.w3.org/2000/svg">
<circle cx="30" cy="30" r="30" fill="#FFF0B3"/>
<g clip-path="url(#clip0_3417_3983)">
<rect width="24" height="24" transform="translate(18 18)" fill="white" fill-opacity="0.01"/>
<rect width="24" height="24" transform="translate(18 18)" fill="white" fill-opacity="0.01"/>
<path fill-rule="evenodd" clip-rule="evenodd" d="M26.126 28H22C20.887 28 20 28.895 20 30V33.73C20 35.04 21.874 35.783 24 35.96V32.996C24.0016 32.2012 24.3183 31.4395 24.8807 30.8779C25.4431 30.3162 26.2052 30.0005 27 30H27.354C26.7539 29.4711 26.3262 28.7745 26.126 28ZM33.874 28H38C39.105 28 40 28.885 40 30V33.73C40 35.04 38.126 35.783 36 35.96V32.996C35.9989 32.2011 35.6824 31.439 35.1199 30.8773C34.5574 30.3155 33.795 30 33 30H32.646C33.2461 29.4711 33.6738 28.7745 33.874 28ZM27.967 23.554C27.875 22.9431 27.5966 22.3754 27.1698 21.9287C26.743 21.4819 26.1888 21.1778 25.5827 21.0579C24.9766 20.938 24.3482 21.0081 23.7835 21.2588C23.2188 21.5094 22.7452 21.9283 22.4275 22.4582C22.1098 22.9881 21.9634 23.6031 22.0084 24.2193C22.0534 24.8355 22.2876 25.4228 22.6789 25.9009C23.0702 26.379 23.5996 26.7247 24.1947 26.8906C24.7899 27.0566 25.4218 27.0347 26.004 26.828C26.0323 26.1619 26.2268 25.5135 26.5696 24.9417C26.9125 24.3699 27.3928 23.8928 27.967 23.554ZM33.997 26.828C34.5792 27.0346 35.2109 27.0564 35.806 26.8905C36.401 26.7246 36.9304 26.379 37.3217 25.901C37.713 25.423 37.9471 24.8358 37.9922 24.2197C38.0373 23.6036 37.8911 22.9886 37.5736 22.4587C37.2561 21.9289 36.7828 21.5099 36.2182 21.2591C35.6537 21.0083 35.0255 20.9379 34.4194 21.0575C33.8133 21.1771 33.259 21.4809 32.832 21.9274C32.4051 22.3738 32.1264 22.9412 32.034 23.552C32.6088 23.8907 33.0895 24.3679 33.4324 24.9402C33.7753 25.5124 33.9694 26.1615 33.997 26.828Z" fill="#FF8B00"/>
<path fill-rule="evenodd" clip-rule="evenodd" d="M25 33C25 31.895 25.887 31 27 31H33C34.105 31 35 31.885 35 33V36.73C35 39.757 25 39.757 25 36.73V33Z" fill="#FF8B00"/>
<path d="M30 30C31.6569 30 33 28.6569 33 27C33 25.3432 31.6569 24 30 24C28.3431 24 27 25.3432 27 27C27 28.6569 28.3431 30 30 30Z" fill="#FF8B00"/>
</g>
<defs>
<clipPath id="clip0_3417_3983">
<rect width="24" height="24" fill="white" transform="translate(18 18)"/>
</clipPath>
</defs>
</svg>
